<svg viewBox="0 0 8 8" fill="none" xmlns="http://www.w3.org/2000/svg"><g clip-path="url(#clip0)" fill="#fff" stroke="#fff" stroke-width=".2"><path d="M8.02 3.459l-.07.07.07-.07a.274.274 0 00-.388 0L4 7.09.368 3.459s0 0 0 0a.274.274 0 00-.388.387l3.826 3.826h0a.275.275 0 00.388 0L8.02 3.846h0a.274.274 0 000-.387z"/><path d="M8.02.328l-.07.07.07-.07a.274.274 0 00-.388 0h0L4 3.96.368.328s0 0 0 0A.274.274 0 00-.02.716l3.826 3.826h0a.275.275 0 00.388-.001L8.02.715a.274.274 0 000-.387z"/></g><defs><clipPath id="clip0"><path fill="#fff" d="M0 0h8v8H0z"/></clipPath></defs></svg>