<svg viewBox="0 0 15 15" fill="none" xmlns="http://www.w3.org/2000/svg"><path d="M3.063 8.412h2.625v.878H3.063v-.878zm0 1.758h5.25v.879h-5.25v-.88z" fill="#fff"/><path d="M15 8.785l-1.313-1.757c.567-.758.875-1.68.875-2.636C14.562 1.97 12.6 0 10.187 0 7.775 0 5.812 1.97 5.812 4.392v.068C2.865 4.39.438 6.776.438 9.73c0 1.17.386 2.3 1.094 3.22L0 15h5.688c3.263 0 5.752-2.975 5.166-6.215H15zM6.687 4.392a3.51 3.51 0 013.5-3.513 3.51 3.51 0 013.5 3.513c0 .861-.313 1.69-.882 2.333l-.238.268.682.913h-2.635a5.275 5.275 0 00-3.927-3.352v-.162zm-.999 9.73H1.751l.902-1.21-.237-.268A4.395 4.395 0 011.313 9.73c0-2.422 1.963-4.392 4.375-4.392s4.375 1.97 4.375 4.392c0 2.422-1.963 4.392-4.375 4.392z" fill="#fff"/></svg>