<svg viewBox="0 0 20 20" fill="none" xmlns="http://www.w3.org/2000/svg"><path d="M10 9.375a2.93 2.93 0 100-5.86 2.93 2.93 0 000 5.86z" fill="#D6D6D6"/><path d="M10 0C4.477 0 0 4.477 0 10s4.477 10 10 10 10-4.477 10-10S15.523 0 10 0zm0 2.344a4.106 4.106 0 014.102 4.101A4.106 4.106 0 0110 10.547a4.106 4.106 0 01-4.102-4.102A4.106 4.106 0 0110 2.344zm6.658 11.437A7.677 7.677 0 0110 17.656a7.677 7.677 0 01-6.658-3.875l-.208-.364.278-.314a4.105 4.105 0 013.072-1.384h7.032c1.173 0 2.293.504 3.072 1.384l.278.314-.208.364z" fill="#D6D6D6"/><path d="M6.484 12.89c-.695 0-1.364.249-1.89.692A6.504 6.504 0 0010 16.484a6.504 6.504 0 005.406-2.902 2.933 2.933 0 00-1.89-.691H6.484z" fill="#D6D6D6"/></svg>