<?xml version="1.0" encoding="utf-8"?>
<!-- Generator: Adobe Illustrator 19.0.1, SVG Export Plug-In . SVG Version: 6.00 Build 0)  -->
<svg version="1.1" id="Слой_1" xmlns="http://www.w3.org/2000/svg" xmlns:xlink="http://www.w3.org/1999/xlink" x="0px" y="0px"
	 viewBox="-285 412.2 24 18" enable-background="new -285 412.2 24 18" xml:space="preserve">
<path id="path-1" fill="#FFFEA3" d="M-264.8,412.2c-6.2,4-13-0.3-18,4.5c0.3,0.7,3.8,8.2,3.8,8.2c5.3-4.5,12.5-0.2,18-4.5
	C-261.6,419.2-264.8,412.2-264.8,412.2z M-265.7,414.5l2.4,5.2c-4.3,2.3-9.9-0.3-15,2.5l-2.3-5.1
	C-276.7,414.5-271.4,417.2-265.7,414.5z M-271.4,419.4l0.1,0.2l-0.2,0l-0.1-0.2c-0.2,0-0.5,0-0.7,0l-0.1-0.4c0.2,0,0.4,0.1,0.6,0
	c0,0,0.1,0,0.1,0c0.2-0.1,0.2-0.4-0.2-0.5c-0.2-0.1-0.9,0-1.1-0.6c-0.1-0.3,0-0.6,0.4-0.8l-0.1-0.2l0.2,0l0.1,0.2c0.2,0,0.3,0,0.6,0
	l0.1,0.4c-0.2,0-0.4,0-0.5,0c0,0,0,0-0.1,0c-0.3,0.1-0.2,0.4,0.1,0.4c0.5,0.1,1,0.1,1.2,0.6C-270.8,419-271,419.2-271.4,419.4z
	 M-269.9,418c-0.5-1.1-1.8-1.8-2.9-1.6c-1.1,0.2-1.7,1.2-1.2,2.3c0.5,1.2,1.9,1.9,3.1,1.6C-269.9,420-269.5,419-269.9,418z
	 M-261,424.2c-6.9,3.9-12.4-1.4-19.5,6l-4.5-10l1.4-1.5l3.8,8.4l0,0c7.4-5.6,11.2-1.2,18.1-4.6C-261.4,423.3-261.1,424-261,424.2z"
	/>
</svg>
