<?xml version="1.0" encoding="utf-8"?>
<!-- Generator: Adobe Illustrator 19.0.1, SVG Export Plug-In . SVG Version: 6.00 Build 0)  -->
<svg version="1.1" id="Слой_1" xmlns="http://www.w3.org/2000/svg" xmlns:xlink="http://www.w3.org/1999/xlink" x="0px" y="0px"
	 viewBox="-285 408.9 24 24" enable-background="new -285 408.9 24 24" xml:space="preserve">
<path id="path-1" fill="#FDEF99" d="M-268.6,416.4l-5.6,5.8l-2.6-2.5l-1.9,1.9l4.5,4.4l7.5-7.6L-268.6,416.4z M-273,408.9
	c-6.6,0-12,5.4-12,12c0,6.6,5.4,12,12,12s12-5.4,12-12C-261,414.3-266.4,408.9-273,408.9z M-273,410.9c5.5,0,10,4.5,10,10
	c0,5.5-4.5,10-10,10s-10-4.5-10-10C-283,415.4-278.5,410.9-273,410.9z"/>
</svg>
