<?xml version="1.0" encoding="utf-8"?>
<!-- Generator: Adobe Illustrator 19.0.1, SVG Export Plug-In . SVG Version: 6.00 Build 0)  -->
<svg version="1.1" id="Слой_1" xmlns="http://www.w3.org/2000/svg" xmlns:xlink="http://www.w3.org/1999/xlink" x="0px" y="0px"
	 viewBox="-286 408.9 22 24" enable-background="new -286 408.9 22 24" xml:space="preserve">
<path id="path-1" fill="#FFFEA3" d="M-266.2,412.5l-0.7-0.7l-2.1,2.2l-1-0.9l-0.7,0.7l1.7,1.6L-266.2,412.5z M-264,413.4
	c0,2.5-2,4.5-4.5,4.5s-4.5-2-4.5-4.5c0-2.5,2-4.5,4.5-4.5S-264,410.9-264,413.4z M-268,419.9c0,1.2,0,2.1,0,2.6c0,4.1-6,2.5-6,2.5
	s1.5,6-2.6,6c-1.9,0-0.5,0-7.4,0v-20h9.5c0.3-0.7,0.8-1.4,1.3-2H-286v24h10.2c3.2,0,9.8-7.2,9.8-9.6v-3.9
	C-266.6,419.6-267.3,419.8-268,419.9z M-281,415.9h6.5c-0.1-0.3-0.2-0.7-0.3-1h-6.2V415.9z M-273.2,417.9h-7.8v1h9
	C-272.4,418.6-272.8,418.3-273.2,417.9z M-281,420.9h10v1h-10V420.9z"/>
</svg>
