<?xml version="1.0" encoding="utf-8"?>
<!-- Generator: Adobe Illustrator 19.0.1, SVG Export Plug-In . SVG Version: 6.00 Build 0)  -->
<svg version="1.1" id="Слой_1" xmlns="http://www.w3.org/2000/svg" xmlns:xlink="http://www.w3.org/1999/xlink" x="0px" y="0px"
	 viewBox="-285 409.9 24 22" enable-background="new -285 409.9 24 22" xml:space="preserve">
<path id="path-1" fill="#FFFEA3" d="M-271.5,417.3c-0.6,0-1.1,0.5-1.1,1.1c0,0.6,0.5,1.1,1.1,1.1s1.1-0.5,1.1-1.1
	C-270.4,417.8-270.9,417.3-271.5,417.3z M-275,417.3c-0.6,0-1.1,0.5-1.1,1.1c0,0.6,0.5,1.1,1.1,1.1s1.1-0.5,1.1-1.1
	C-273.9,417.8-274.4,417.3-275,417.3z M-278.5,417.3c-0.6,0-1.1,0.5-1.1,1.1c0,0.6,0.5,1.1,1.1,1.1s1.1-0.5,1.1-1.1
	C-277.4,417.8-277.9,417.3-278.5,417.3z M-263.5,421.1c-0.2,0.5-0.4,1-0.6,1.4c1.7,1.3,2.3,3.2,0.5,5.4c0,0.7,0,1,0.1,1.9
	c-0.9-0.3-1-0.4-1.7-0.8c-2.1,0.5-4.3,0.7-6.1-0.9c-0.6,0.2-1.1,0.3-1.7,0.4c1.5,1.9,4.3,2.9,7.6,2.1c0.9,0.6,2.9,1.1,4.4,1.4
	c-0.5-1-1.1-2.5-1.1-3.5C-260.4,426.3-260.6,423-263.5,421.1z M-275,409.9c-5.3,0-10,3.5-10,8.4c0,1.7,0.6,3.4,1.7,4.7
	c0,1.5-0.9,3.7-1.7,5.3c2.2-0.4,5.3-1.3,6.6-2.1c1.2,0.3,2.3,0.4,3.4,0.4c5.9,0,9.9-4,9.9-8.3C-265,413.4-269.8,409.9-275,409.9z
	 M-275,411.9c4.4,0,8,2.8,8,6.4c0,3-3,6.3-7.9,6.3c-1.6,0-2.7-0.3-3.7-0.6c-1,0.6-1.3,0.8-3,1.4c0.4-1.5,0.4-2.2,0.3-3.2
	c-0.8-1-1.7-2.1-1.7-3.9C-283,414.7-279.4,411.9-275,411.9z"/>
</svg>
