<?xml version="1.0" encoding="utf-8"?>
<!-- Generator: Adobe Illustrator 19.0.1, SVG Export Plug-In . SVG Version: 6.00 Build 0)  -->
<svg version="1.1" id="Слой_1" xmlns="http://www.w3.org/2000/svg" xmlns:xlink="http://www.w3.org/1999/xlink" x="0px" y="0px"
	 viewBox="-285 408.9 24 24" enable-background="new -285 408.9 24 24" xml:space="preserve">
<path id="path-1" fill="#FFFEA3" d="M-271.5,432.9l-0.7-3h-1.6l-0.7,3H-271.5z M-274.5,426.9l0.9,2h1.2l0.9-2H-274.5z M-261,432.9
	h-2c0-3.1,0.1-3.6-1.8-4c-2.9-0.7-5.6-1.3-6.6-3.5c-0.4-0.8-0.6-2.1,0.3-3.8c2-3.9,2.6-7.2,1.4-9.1c-1.3-2.2-5.4-2.2-6.8,0
	c-1.2,1.9-0.6,5.2,1.4,9c0.9,1.7,0.7,3,0.3,3.8c-1,2.2-3.7,2.8-6.5,3.5c-2,0.5-1.8,0.9-1.8,4h-2c0-0.4,0-0.9,0-1.2
	c0-2.5,0.2-4,3.2-4.7c3.4-0.8,6.7-1.5,5.1-4.4c-4.7-8.7-1.4-13.7,3.7-13.7c5,0,8.5,4.8,3.7,13.7c-1.5,2.9,1.7,3.6,5.1,4.4
	c3,0.7,3.2,2.1,3.2,4.7C-261,432-261,432.5-261,432.9z"/>
</svg>
