<svg xmlns="http://www.w3.org/2000/svg" viewBox="-87 216.796 419.599 409.094"><linearGradient id="a" gradientUnits="userSpaceOnUse" x1="26.487" y1="561.17" x2="307.755" y2="561.17"><stop offset="0" stop-color="#e51b5a"/><stop offset="1" stop-color="#ee7232"/></linearGradient><path fill="url(#a)" d="M26.487 604.418c27.451 13.725 58.375 21.473 91.065 21.473 86.155 0 160.157-53.755 190.203-129.441L26.487 604.418z"/><linearGradient id="b" gradientUnits="userSpaceOnUse" x1="151.073" y1="252.919" x2="156.545" y2="252.919"><stop offset="0" stop-color="#e51b5a"/><stop offset="1" stop-color="#ee7232"/></linearGradient><path fill="url(#b)" d="M151.073 256.311l5.472 1.263-.725-9.31z"/><linearGradient id="c" gradientUnits="userSpaceOnUse" x1="100.846" y1="250.38" x2="111.296" y2="250.38"><stop offset="0" stop-color="#e51b5a"/><stop offset="1" stop-color="#ee7232"/></linearGradient><path fill="url(#c)" d="M105.587 243.009c-3.674.259-4.973 3.59-4.708 7.354.257 3.762 2.063 7.641 5.743 7.391 3.675-.262 4.899-4.354 4.641-8.119-.272-3.761-1.988-6.881-5.676-6.626z"/><linearGradient id="d" gradientUnits="userSpaceOnUse" x1="198.117" y1="273.257" x2="210.061" y2="273.257"><stop offset="0" stop-color="#e51b5a"/><stop offset="1" stop-color="#ee7232"/></linearGradient><path fill="url(#d)" d="M207.57 266.84c-3.219-1.782-6.125.298-7.951 3.6-1.835 3.3-2.432 7.541.787 9.326 3.238 1.788 6.482-.98 8.316-4.277 1.834-3.304 2.08-6.855-1.152-8.649z"/><linearGradient id="e" gradientUnits="userSpaceOnUse" x1="-87" y1="368.332" x2="316.682" y2="368.332"><stop offset="0" stop-color="#e51b5a"/><stop offset="1" stop-color="#ee7232"/></linearGradient><path fill="url(#e)" d="M117.552 216.796C4.888 216.796-87 308.683-87 421.341c0 35.685 9.233 69.273 25.409 98.526l54.518-20.926c-14.102-22.543-22.272-49.146-22.272-77.6 0-80.905 65.982-146.891 146.897-146.891 72.112 0 132.383 52.441 144.616 121.143l54.514-20.925c-21.21-90.294-102.521-157.872-199.13-157.872zm-97.421 75.498l-8.496-10.866 1.503 10.306-1.028.806-8.999-3.41 7.99 10.217-2.376 1.853-11.893-15.221 2.197-1.715 11.264 4.192-1.705-11.666 2.37-1.849 11.892 15.225-2.719 2.128zm22.583-14.369l-6.945-12.529-.807 16.823-2.867 1.593-9.37-16.901 3.029-1.674 6.943 12.527.787-16.818 2.887-1.596 9.367 16.896-3.024 1.679zm23.18-9.691l-10.299-6.899 3.484 9.083-3.224 1.244-6.926-18.034 3.232-1.244 3.225 8.396 3.743-11.285 3.187-.801-3.736 10.763 10.52 6.902-3.206 1.875zm17.652-11.72l-2.098.486.232-2.763.642-.145c2.1-.486 2.565-2.396 2.054-4.579-.59-2.544-2.523-3.11-4.843-2.577l-1.656.382 3.747 16.255-3.371.774-4.34-18.823 5.249-1.213c4.445-1.026 7.793-.022 8.808 4.37.771 3.345-.413 6.913-4.424 7.833zm23.267 3.898c-5.546.392-9.196-3.769-9.622-9.793-.388-5.661 3.036-9.88 8.211-10.24 5.206-.366 9.115 3.341 9.503 9.005.419 6.024-2.529 10.643-8.092 11.028zm75.737-13.715a3.87 3.87 0 0 0 .503 1.776c.278.471.733.92 1.271 1.123.534.206 1.175.181 1.698.015.351-.112.683-.286.98-.505.201-.135.393-.302.578-.477l1.71 1.083c-.264.293-.511.561-.818.808a6.604 6.604 0 0 1-1.576.98 4.165 4.165 0 0 1-1.814.333 4.557 4.557 0 0 1-1.504-.302 4.587 4.587 0 0 1-2.457-2.253 6.446 6.446 0 0 1-.491-1.767 7.166 7.166 0 0 1-.067-1.156l1.987.342zm-43.892.893c-.24 3.421-2.418 6.481-6.517 6.198l-2.151-.152 1.028-2.572.659.047c2.142.15 3.144-1.545 3.3-3.775.179-2.604-1.507-3.716-3.878-3.884l-1.701-.119-1.162 16.645-3.452-.248 1.342-19.271 5.378.372c4.562.321 7.468 2.259 7.154 6.759zm18.422 16.889l-.351-4.331-6.949-1.606-2.209 3.743-3.144-.728 10.862-17.316 3.373.774 2.211 20.341-3.793-.877zm26.443 8.971l-3.237-1.238 5.144-13.38-13.399 10.206-3.071-1.18 6.918-18.038 3.237 1.244-5.138 13.373 13.401-10.202 3.071 1.174-6.926 18.041zm28.393 3.81c-2.923 5.287-7.902 7.552-12.796 4.844-4.876-2.695-5.661-8.168-2.726-13.449 2.752-4.964 7.936-6.642 12.47-4.12 4.56 2.53 5.817 7.765 3.052 12.725zm14.318 24.183l-2.653-2.228 5.704-6.804-6.444-5.416-5.717 6.81-2.653-2.232 12.425-14.796 2.649 2.222-4.992 5.956 6.45 5.416 4.999-5.954 2.641 2.22-12.409 14.806z"/><linearGradient id="f" gradientUnits="userSpaceOnUse" x1="85.373" y1="320.394" x2="109.502" y2="320.394"><stop offset="0" stop-color="#e51b5a"/><stop offset="1" stop-color="#ee7232"/></linearGradient><path fill="url(#f)" d="M109.502 308.787l-24.129 13.917v9.298l24.129-13.936z"/><linearGradient id="g" gradientUnits="userSpaceOnUse" x1="85.373" y1="357.523" x2="109.502" y2="357.523"><stop offset="0" stop-color="#e51b5a"/><stop offset="1" stop-color="#ee7232"/></linearGradient><path fill="url(#g)" d="M109.502 345.914l-24.129 13.942v9.276l24.129-13.92z"/><linearGradient id="h" gradientUnits="userSpaceOnUse" x1="85.373" y1="376.101" x2="109.502" y2="376.101"><stop offset="0" stop-color="#e51b5a"/><stop offset="1" stop-color="#ee7232"/></linearGradient><path fill="url(#h)" d="M109.502 364.494l-24.129 13.917v9.298l24.129-13.931z"/><linearGradient id="i" gradientUnits="userSpaceOnUse" x1="149.706" y1="413.236" x2="173.828" y2="413.236"><stop offset="0" stop-color="#e51b5a"/><stop offset="1" stop-color="#ee7232"/></linearGradient><path fill="url(#i)" d="M173.828 401.625l-24.122 13.934v9.288l24.122-13.935z"/><linearGradient id="j" gradientUnits="userSpaceOnUse" x1="85.373" y1="394.665" x2="109.502" y2="394.665"><stop offset="0" stop-color="#e51b5a"/><stop offset="1" stop-color="#ee7232"/></linearGradient><path fill="url(#j)" d="M109.502 383.062l-24.129 13.916v9.29l24.129-13.92z"/><linearGradient id="k" gradientUnits="userSpaceOnUse" x1="149.706" y1="357.523" x2="173.828" y2="357.523"><stop offset="0" stop-color="#e51b5a"/><stop offset="1" stop-color="#ee7232"/></linearGradient><path fill="url(#k)" d="M173.828 345.914l-24.122 13.942v9.276l24.122-13.92z"/><linearGradient id="l" gradientUnits="userSpaceOnUse" x1="149.706" y1="376.101" x2="173.828" y2="376.101"><stop offset="0" stop-color="#e51b5a"/><stop offset="1" stop-color="#ee7232"/></linearGradient><path fill="url(#l)" d="M173.828 364.494l-24.122 13.917v9.298l24.122-13.931z"/><linearGradient id="m" gradientUnits="userSpaceOnUse" x1="149.706" y1="394.665" x2="173.828" y2="394.665"><stop offset="0" stop-color="#e51b5a"/><stop offset="1" stop-color="#ee7232"/></linearGradient><path fill="url(#m)" d="M173.828 383.062l-24.122 13.916v9.29l24.122-13.92z"/><linearGradient id="n" gradientUnits="userSpaceOnUse" x1="85.373" y1="338.969" x2="109.502" y2="338.969"><stop offset="0" stop-color="#e51b5a"/><stop offset="1" stop-color="#ee7232"/></linearGradient><path fill="url(#n)" d="M109.502 327.372l-24.129 13.907v9.286l24.129-13.923z"/><linearGradient id="o" gradientUnits="userSpaceOnUse" x1="21.064" y1="431.808" x2="45.168" y2="431.808"><stop offset="0" stop-color="#e51b5a"/><stop offset="1" stop-color="#ee7232"/></linearGradient><path fill="url(#o)" d="M45.168 420.199l-24.104 13.923v9.294l24.104-13.936z"/><linearGradient id="p" gradientUnits="userSpaceOnUse" x1="21.064" y1="450.37" x2="45.168" y2="450.37"><stop offset="0" stop-color="#e51b5a"/><stop offset="1" stop-color="#ee7232"/></linearGradient><path fill="url(#p)" d="M45.168 438.762l-24.104 13.923v9.294l24.104-13.922z"/><linearGradient id="q" gradientUnits="userSpaceOnUse" x1="21.064" y1="413.236" x2="45.168" y2="413.236"><stop offset="0" stop-color="#e51b5a"/><stop offset="1" stop-color="#ee7232"/></linearGradient><path fill="url(#q)" d="M45.168 401.625l-24.104 13.934v9.288l24.104-13.935z"/><linearGradient id="r" gradientUnits="userSpaceOnUse" x1="21.064" y1="468.94" x2="45.168" y2="468.94"><stop offset="0" stop-color="#e51b5a"/><stop offset="1" stop-color="#ee7232"/></linearGradient><path fill="url(#r)" d="M45.168 457.332l-24.104 13.936v9.28l24.104-13.934z"/><linearGradient id="s" gradientUnits="userSpaceOnUse" x1="85.373" y1="450.37" x2="109.502" y2="450.37"><stop offset="0" stop-color="#e51b5a"/><stop offset="1" stop-color="#ee7232"/></linearGradient><path fill="url(#s)" d="M109.502 438.762l-24.129 13.923v9.294l24.129-13.922z"/><linearGradient id="t" gradientUnits="userSpaceOnUse" x1="21.064" y1="394.665" x2="45.168" y2="394.665"><stop offset="0" stop-color="#e51b5a"/><stop offset="1" stop-color="#ee7232"/></linearGradient><path fill="url(#t)" d="M45.168 383.062l-24.104 13.916v9.29l24.104-13.92z"/><linearGradient id="u" gradientUnits="userSpaceOnUse" x1="85.373" y1="413.236" x2="109.502" y2="413.236"><stop offset="0" stop-color="#e51b5a"/><stop offset="1" stop-color="#ee7232"/></linearGradient><path fill="url(#u)" d="M109.502 401.625l-24.129 13.934v9.288l24.129-13.935z"/><linearGradient id="v" gradientUnits="userSpaceOnUse" x1="85.373" y1="431.808" x2="109.502" y2="431.808"><stop offset="0" stop-color="#e51b5a"/><stop offset="1" stop-color="#ee7232"/></linearGradient><path fill="url(#v)" d="M109.502 420.199l-24.129 13.923v9.294l24.129-13.936z"/><linearGradient id="w" gradientUnits="userSpaceOnUse" x1="21.064" y1="357.523" x2="45.168" y2="357.523"><stop offset="0" stop-color="#e51b5a"/><stop offset="1" stop-color="#ee7232"/></linearGradient><path fill="url(#w)" d="M45.168 345.914l-24.104 13.942v9.276l24.104-13.92z"/><linearGradient id="x" gradientUnits="userSpaceOnUse" x1="21.064" y1="376.101" x2="45.168" y2="376.101"><stop offset="0" stop-color="#e51b5a"/><stop offset="1" stop-color="#ee7232"/></linearGradient><path fill="url(#x)" d="M45.168 364.494l-24.104 13.917v9.298l24.104-13.931z"/><linearGradient id="y" gradientUnits="userSpaceOnUse" x1="-44.668" y1="499.873" x2="332.598" y2="499.873"><stop offset="0" stop-color="#e51b5a"/><stop offset="1" stop-color="#ee7232"/></linearGradient><path fill="url(#y)" d="M172.85 493.66l2.018-3.507c-.14.799-.258 1.58-.357 2.363-.633 5.266-.157 8.784 1.405 10.543 1.193 1.335 2.105 1.083 3.558.302 4.715-2.543 8.08-10.354 11.622-18.311-.507 5.428-.148 9.551 1.44 11.399.325.375.767.726 1.248.874.788.24 1.434-.198 2.241-.734 4.59-3.075 8.579-11.231 12.592-19.283-.897 5.183-1.507 10.33-1.6 14.884l7.768-4.217c2.961-11.283 8.886-24.258 11.658-27.286-2.026 7.866-3.649 16.421-2.563 24.418l7.628-3.633c6.266-19.295 8.77-22.538 11.448-25.156-2.7 5.419-4.869 19.585-1.371 21.457.958.517 1.801-.023 2.602-.564 2.979-2.046 6.403-6.864 10.224-14.078.037.221.067.448.098.657.975 4.919 3.245 7.714 7.442 7.398 4.837-.448 11.263-9.651 18.725-22.589l1.483-2.683c-.955 6.291-1.465 12.711-1.312 17.043l6.789-3.821c3.705-12.127 7.502-22.516 11.693-26.751-2.947 9.053-4.32 17.062-3.576 23.703l7.506-3.219c3.963-13.148 7.791-19.193 11.612-24.214-3.028 8.882-4.129 15.794-2.067 19.456 1.066 1.914 2.574 2.21 4.635 2.068 6.955-.491 13.263-7.257 15.159-11.216-.056-.114-.61-.276-.677-.398-1.649 2.929-4.955 5.674-7.423 7.048-.708.393-1.599.88-2.418.805-1.805-.184-2.081-2.947-2.131-4.357-.302-7.338 5.022-20.953 10.729-29.093l-.531-.692-10.561 3.623c-5.442 7.459-10.549 15.367-14.447 24.895 1.417-7.028 3.779-14.352 6.475-21.509l-.51-.468-8.563 3.166c-6.012 6.594-10.081 16.583-11.332 18.902 1.639-7.947 3.695-13.594 5.479-17.001l-.629-.477-8.905 3.955c-1.059 1.689-2.073 4.606-2.955 8.119-1.057 2.734-2.085 5.473-3.17 8.182-2.091 5.213-6.407 11.798-9.951 16.12-.888 1.089-3.462 4.611-4.803 4.142-.486-.172-.965-.732-1.464-1.87-2.72-6.223 1.008-19.709 3.785-24.179.783-1.255 2.639-2.485 3.194-.418.911 3.373-2.05 15.401-5.878 15.805a34.829 34.829 0 0 0-.148 2.432c9.498-6.346 13.457-12.45 14.342-17.634.523-4.543-2.799-5.367-6.365-5.144-2.142.128-4.184.694-6.038 1.785-8.217 4.85-10.506 13.042-12.674 20.974a22.82 22.82 0 0 0-.528 2.327 34.763 34.763 0 0 1-2.714 6.058c-.307.546-2.081 3.545-2.54 3.57-.353.026-.304-.972-.31-1.207-.09-9.535 3.146-18.821 7.419-24.325-.217-.228-.418-.461-.627-.688l-9.843 3.91c-5.418 7.121-8.648 13.681-12.034 20.845 1.17-7.214 2.795-14.034 6.543-18.964-.177-.136-.357-.272-.528-.406l-9.393 3.002c-3.959 3.939-7.979 10.423-12.052 19.464.984-6.26 2.574-12.075 5.663-16.701-.253-.097-.513-.381-.763-.478l-10.058 5.022a225.804 225.804 0 0 0-3.091 12.249c-3.496 7.631-7.36 14.981-9.368 16.723-.172.16-.369.325-.615.314-.448-.026-.308-.77-.278-1.085 1.245-11.73 3.628-20.637 7.352-26.169l-.444-.544-11.61 5.494-.613 2.621c-1.521 6.407-4.656 19.246-9.358 25.021-.232.3-.966 1.333-1.353 1.168-.389-.166-.411-.695-.389-1.058.708-8.011 4.876-23.914 7.503-25.932l-.441-.726-9.419 4.369-1.063 2.136a48.722 48.722 0 0 0-2.862 7.811l-2.789 6.363c-4.882 10.89-9.35 17.999-11.892 18.344-.412.062-.682-.051-.979-.327-3.239-2.961-.363-18.725 2.584-23.924.661-1.182 1.558-2.038 2.223-1.957 1.422.172.967 3.742.801 4.657a13.41 13.41 0 0 1-.382 1.712c-.14.505-.282 1.01-.467 1.495a15.483 15.483 0 0 1-.813 1.933c-.331.677-.72 1.329-1.138 1.983l2.05.825c.769-.825 1.526-1.673 2.31-2.488.355-.357.712-.712 1.069-1.083 1.059-1.107 1.969-2.14 2.697-3.298.313-.531.609-1.079.836-1.651a5.78 5.78 0 0 0 .401-1.304 10.48 10.48 0 0 0 .116-2.677c-.116-1.215-.523-2.284-1.47-2.992-.437-.34-.941-.537-1.485-.683-1.679-.457-3.754-.322-5.691.56-2.687 1.225-5.172 3.475-6.993 5.779-2.027 2.547-3.793 6-5.172 10.857-.83 2.969-1.274 5.922-1.294 8.894-1.292 2.789-2.732 5.588-4.436 8.284-.266.438-1.329 1.779-1.86 1.613-.405-.122-.251-1.274-.233-1.681.284-8.063 2.58-19.314 7.786-27.883l-.639-.541-6.87 2.918c-3.988 2.671-8.691 9.419-13.805 18.589 2.703-10.217 5.154-16.719 9.567-25.288l-.531-.54-10.505 5.454c-1.971 4.732-3.761 11.572-5.405 19.721l-1.571 4.085c-4.474 11.07-12.802 22.8-15.818 20.277-2.566-1.262-2.43-9.579.612-19.315.171-.531.33-1.059.503-1.594.696-2.15 2.113-6.008 4.021-5.227 1.279.524 1.328 2.574.966 4.751-.408 2.415-1.06 5.016-2.185 7.178-.912 1.736-2.248 3.133-4.015 4.172a46.228 46.228 0 0 0-.202 1.896c2.985-1.525 5.976-3.205 8.967-6.363 3.089-3.249 5.694-6.74 5.348-11.385-.123-1.712-.652-3.227-2.303-3.897-2.185-.88-5.755-.438-7.6.313-5.49 2.264-10.069 6.592-13.012 14.65-1.354 2.964-3.146 6.661-4.523 8.567.449-7.73-1.484-10.955-9.523-7.644l-.128-.308c3.434-2.831 11.459-8.217 14.244-13.942.208-.424.386-.862.541-1.304 1.841-5.123-.216-9.147-4.259-9.916-1.115-.209-2.13-.089-3.233.135-11.497 2.229-19.092 14.539-22.804 36.935-2.167 6.655-3.877 13.535-8.272 19.125-.187.223-.678.924-.984.862-.34-.075-.303-1.201-.29-1.489.794-11.135 3.041-20.232 6.739-27.299l-.665-.399-10.93 5.367-.886 3.976c-.543 2.547-1.571 7.017-2.278 10.218-.154.72-.289 1.452-.48 2.166-.159.615-.413 1.195-.652 1.791-1.41 3.459-2.261 5.04-3.731 7.182-.234.345-.473.691-.726 1.022-.148.209-.302.432-.463.635-.19.253-.418.503-.602.493-.314-.008-.272-.464-.272-.673.179-7.2 2.646-21.155 6.512-25.751l-.314-.972-11.018 5.138-.577 2.616a4914.59 4914.59 0 0 0-2.463 11.721c-1.385 3.975-2.542 8.05-4.578 11.744-.499.898-2.981 4.923-3.625 4.795-1.656-.327-.48-7.738-.203-8.969a16.74 16.74 0 0 1 2.917.068c-.043-2.172.542-3.872 1.735-5.687-1.323.14-2.585.314-3.749.529 1.441-6.58 3.25-12.519 5.891-15.393l-.345-.54-11.416 5.251-.69 2.305a83.676 83.676 0 0 0-2.384 10.835 192.686 192.686 0 0 0-5.346 1.777c.319-2.27.665-4.511 1.089-6.604.061-.315.154-.617.232-.917a32.642 32.642 0 0 1 1.785-4.586l-.363-.374-10.21 4.162-.542 2.811c-.493 2.757-.893 5.761-1.255 8.882a352.141 352.141 0 0 0-5.209 2.014c.166-.678.315-1.355.463-2.031.88-3.902 1.47-7.806 2.025-11.768.516-3.83 1.059-7.659 1.563-11.48.148-1.163.306-2.321.46-3.484.033-.29.094-.554.166-.83.426-1.552.999-2.957 1.81-4.125.012-.025.038-.045.038-.075l-.504-.412c-.026.006-.033.02-.043.02l-11.955 5.971-.184 3.089c-.007.085-.02.172-.02.265-.031.708-.048 1.433-.103 2.142-.03.235-.05.461-.081.677-1.68 7.786-4.8 14.238-9.724 19.474-.32.328-1.367 1.041-1.294.081.297-3.681 1.072-10.421 1.221-15.678.005-.314.005-.616.005-.925-.08-2.862-.782-4.823-1.915-6.16a4.01 4.01 0 0 0-.431-.412c-.857-.702-1.858-1.065-3.144-.738-.665.16-1.398.499-2.105.886-4.156 2.24-7.577 5.373-10.564 9.022-1.273 1.541-2.315 3.215-3.25 4.983a39.844 39.844 0 0 0-3.157 7.876c-.732 2.612-1.212 5.111-1.016 7.829.093 1.195.665 3.078 1.859 3.572.276.11.578.134.88.11 2.314-.173 6.452-3.126 7.836-4.376l-.382-.4c-.554.463-1.428 1.035-2.198.96a1.403 1.403 0 0 1-.7-.27c-.543-.37-.979-.949-1.356-1.675-1.253-2.426-1.5-5.25-1.187-7.927.235-1.988.763-4.008 1.619-6.07a18.814 18.814 0 0 1 1.68-3.19 20.25 20.25 0 0 1 2.371-2.953c.928-.949 1.907-1.971 3.347-1.312.592.27 1.003.793 1.415 1.454.491.805.64 1.679.745 2.589.227 1.762.376 3.417.413 5.196.043 3.298.227 6.525.511 9.762.141 1.501.277 3.029.516 4.529.038.211.081.42.129.629.285 1.304 1.324 2.081 2.55 1.81.35-.089.677-.247.997-.408 1.453-.737 2.756-1.833 3.975-3.219.431-.499.863-1.04 1.281-1.612.678-.941 1.305-1.927 1.914-2.9a152.993 152.993 0 0 0 3.423-5.675c.814-1.434 1.488-2.905 2.198-4.389.239-.511.491-1.028.738-1.545 0-.037.196-.111.227-.006-.331 5.403-1.002 11.521-1.574 16.52l-.98.392c-8.302 3.961-16.643 7.825-24.043 13.387l.454.559c7.214-4.815 15.431-8.193 23.378-11.584l.922-.375c-.086.819-.121 1.631-.227 2.442-.639 4.777-1.539 9.59-3.454 14.571-3.003 7.858-10.013 8.955-17.128 6.294-3.177-1.179-5.405-3.002-6.592-5.524a2.66 2.66 0 0 1-.166-.444c-.221-.787-.461-2.426-.172-2.919l-.309-.393c-2.707 1.907-5.737 5.527-7.305 8.505a7.192 7.192 0 0 0-.549 1.283c-.295 1.01-.289 2.005.203 2.972.942 1.878 2.85 2.898 4.838 3.391 3.921.954 8.438.272 12.286-.787 2.922-.812 5.516-1.829 7.743-3.077 3.602-2.032 7.317-5.245 9.817-8.484a35.62 35.62 0 0 0 3.28-5.124c2.197-4.17 3.824-8.62 5.122-13.157.271-.921.522-1.87.769-2.819 1.964-.755 3.811-1.44 5.54-2.061-1.251 8.156-1.717 16.92-3.595 22.078 1.977-1.145 4.18-2.61 6.18-3.778.296-.179.578-.345.849-.566.284-.243.541-.511.782-.809.142-.165.27-.349.405-.54.703-1.028 1.287-2.296 1.662-3.417.42-1.268.757-2.598 1.048-3.901.737-3.239 1.256-7.577 1.835-12.028 1.968-.541 3.728-.973 5.316-1.292-.904 8.766.081 15.863 3.189 17.623.801.461 1.367.331 2.032-.227.504-.432 1.088-1.096 1.667-1.822.826-1.034 1.589-2.116 2.333-3.213.405-.59.806-1.195 1.194-1.799 2.074-3.272 3.811-6.732 5.621-10.128.147 2.892.406 5.736 1.513 8.234.345.777 1.065 1.386 1.946 1.416 2.56.075 5.158-4.381 6.42-6.387 1.933-3.053 3.68-6.562 5.257-10.514-.184 3.841-.026 7.348 1.249 9.774.506.961 1.175 2.018 2.402 2.008 1.619-.014 3.322-2.197 4.37-3.398 4.327-4.986 6.661-11.085 9.423-16.948.419 6.397 1.779 10.145 3.952 11.659.702.479 1.601.85 2.437.874 1.774.067 4.34-1.706 6.303-3.324a40.036 40.036 0 0 0 3.202-2.935c6.068-6.229 9.448-14.291 13.51-22.025-1.348 7.474-.898 12.778 1.901 15.703.8.844 1.938 1.669 3.138 1.759 1.269.093 2.782-.558 3.892-1.176 5.687-3.083 10.173-11.521 14.974-18.569l.654-.979.653-1.059c-.229 1.317-.438 2.641-.653 3.965-1.619 10.142-3.083 21.309-4.437 32.524l5.656-3.546c4.953-24.793 8.579-43.233 15.713-50.435-1.55 6.72-4.813 19.167-.183 23.242.656.59 1.746 1.205 2.682 1.146.842-.051 1.722-.588 2.628-1.491 2.469-2.493 5.117-7.768 7.634-13.417.047.422.103.86.166 1.278.085.616.183 1.219.325 1.837.081.441.166.878.308 1.316.444 1.538 1.156 2.744 2.18 3.57.83.677 1.539.775 2.627.641 5.593-.742 10.424-10.429 15.361-18.77zm-86.984-2.233c1.92-3.25 3.909-2.211 4.536.856 1.109 5.316-3.322 15.196-9.256 19.112a138.893 138.893 0 0 0-1.054 5.414c1.466-1.416 3.632-1.416 4.629.049 2.708 3.964-1.193 16.373-4.055 20.934-.474.764-1.317 1.987-2.352 1.539-.665-.29-1.022-.912-1.175-1.582-2.075-8.752 3.353-37.177 8.727-46.322z"/><linearGradient id="z" gradientUnits="userSpaceOnUse" x1="181.866" y1="379.904" x2="214.031" y2="379.904"><stop offset="0" stop-color="#e51b5a"/><stop offset="1" stop-color="#ee7232"/></linearGradient><path fill="url(#z)" d="M214.031 415.637l-.003-65.072-32.162-18.567v95.811z"/><linearGradient id="A" gradientUnits="userSpaceOnUse" x1="117.552" y1="373.502" x2="149.706" y2="373.502"><stop offset="0" stop-color="#e51b5a"/><stop offset="1" stop-color="#ee7232"/></linearGradient><path fill="url(#A)" d="M149.706 439.979V313.425l-32.154-18.568v157.291z"/><linearGradient id="B" gradientUnits="userSpaceOnUse" x1="53.226" y1="404.245" x2="85.386" y2="404.245"><stop offset="0" stop-color="#e51b5a"/><stop offset="1" stop-color="#ee7232"/></linearGradient><path fill="url(#B)" d="M85.386 464.321V350.565l-32.16-18.567v144.493z"/><linearGradient id="C" gradientUnits="userSpaceOnUse" x1="30.751" y1="480.067" x2="45.168" y2="480.067"><stop offset="0" stop-color="#e51b5a"/><stop offset="1" stop-color="#ee7232"/></linearGradient><path fill="url(#C)" d="M45.168 478.634v-2.733l-14.417 8.332z"/><linearGradient id="D" gradientUnits="userSpaceOnUse" x1="149.706" y1="430.033" x2="173.828" y2="430.033"><stop offset="0" stop-color="#e51b5a"/><stop offset="1" stop-color="#ee7232"/></linearGradient><path fill="url(#D)" d="M168.698 432.444l5.13-2.964v-9.281l-24.122 13.923v5.745z"/><path d="M-536.411 420.44c0 10.233-7.959 18.192-18.192 18.192s-18.192-7.959-18.192-18.192 7.959-18.192 18.192-18.192 18.192 7.959 18.192 18.192zm-37.521 79.59h2.274v35.247c0 4.548 3.411 9.096 9.096 9.096h18.192c4.548 0 9.096-3.411 9.096-9.096v-2.274c-1.137-3.411-2.274-6.822-2.274-10.233v-45.48c0-9.096 5.685-17.055 13.644-20.466v-3.411c0-4.548-3.411-9.096-9.096-9.096h-39.795c-4.548 0-9.096 3.411-9.096 9.096v37.521c0 4.548 3.411 9.096 9.096 9.096h-1.137zm160.316-79.59c0 10.233-7.959 18.192-18.192 18.192S-450 430.673-450 420.44s7.959-18.192 18.192-18.192 18.192 7.959 18.192 18.192zm-46.617 32.973v3.411c7.959 3.411 13.644 11.37 13.644 20.466v45.48c0 3.411-1.137 6.822-2.274 10.233v2.274c0 4.548 3.411 9.096 9.096 9.096h18.192c4.548 0 9.096-3.411 9.096-9.096V500.03h2.274c4.548 0 9.096-3.411 9.096-9.096v-37.521c0-4.548-3.411-9.096-9.096-9.096h-40.932c-4.548 0-9.096 3.411-9.096 9.096zm-64.808 69.357c0 4.548 3.411 9.096 9.096 9.096h3.411v40.932c0 4.548 3.411 9.096 9.096 9.096h23.877c4.548 0 9.096-3.411 9.096-9.096v-42.069h3.411c4.548 0 9.096-3.411 9.096-9.096v-45.48c0-4.548-3.411-9.096-9.096-9.096h-48.891c-4.548 0-9.096 3.411-9.096 9.096v46.617zm52.301-81.864a20.38 20.38 0 0 1-20.466 20.466c-11.37 0-20.466-9.096-20.466-20.466s9.096-20.466 20.466-20.466a20.38 20.38 0 0 1 20.466 20.466z" fill="#FFF"/></svg>