<svg viewBox="0 0 10 10" fill="none" xmlns="http://www.w3.org/2000/svg"><g clip-path="url(#clip0)" fill="#717171"><path d="M8.723 2.43L6.379.086A.293.293 0 006.172 0H2.07a.88.88 0 00-.879.879V9.12a.88.88 0 00.88.879H7.93a.88.88 0 00.879-.879V2.637a.296.296 0 00-.086-.207zM6.465 1l1.343 1.344h-1.05a.293.293 0 01-.293-.293V1zM7.93 9.414H2.07a.293.293 0 01-.293-.293V.88c0-.162.132-.293.293-.293h3.81V2.05a.88.88 0 00.879.879h1.465V9.12a.293.293 0 01-.293.293z"/><path d="M6.758 4.14H3.242a.293.293 0 000 .587h3.516a.293.293 0 000-.586zm0 1.173H3.242a.293.293 0 000 .585h3.516a.293.293 0 000-.585zm0 1.171H3.242a.293.293 0 000 .586h3.516a.293.293 0 000-.586zM5.586 7.656H3.242a.293.293 0 000 .586h2.344a.293.293 0 000-.586z"/></g><defs><clipPath id="clip0"><path fill="#fff" d="M0 0h10v10H0z"/></clipPath></defs></svg>