<svg viewBox="0 0 13 14" fill="none" xmlns="http://www.w3.org/2000/svg"><g clip-path="url(#clip0)" fill="#fff"><path d="M9.242 4.61a.814.814 0 10-.002-1.626.814.814 0 00.002 1.627z"/><path d="M12.86 4.455c-.271-.692-.769-1.69-1.598-2.518C10.436 1.113 9.451.63 8.77.367a2.038 2.038 0 00-2.166.461L4.61 2.818a2.04 2.04 0 00-.424 2.258c.105.236.219.466.34.69L.15 10.151a.51.51 0 00-.149.36v2.24c0 .281.227.51.508.51h2.234a.51.51 0 00.508-.51v-.916h.914a.51.51 0 00.508-.51v-.915h.914a.508.508 0 000-1.018H4.164a.508.508 0 00-.508.509v.916h-.914a.508.508 0 00-.508.509v.916H1.016v-1.52L5.519 6.21a.51.51 0 00.075-.624 8.246 8.246 0 01-.48-.923 1.015 1.015 0 01.212-1.123L7.32 1.55a1.023 1.023 0 011.087-.23c.59.226 1.439.642 2.139 1.34.704.702 1.133 1.567 1.368 2.168.148.376.058.802-.227 1.087L9.669 7.927a1.02 1.02 0 01-1.118.219 6.587 6.587 0 01-.914-.468.51.51 0 00-.531.868c.334.205.689.387 1.055.54a2.033 2.033 0 002.224-.437l2.018-2.014a2.031 2.031 0 00.457-2.18z"/></g><defs><clipPath id="clip0"><path fill="#fff" transform="translate(0 .232)" d="M0 0h13v13.031H0z"/></clipPath></defs></svg>