<svg viewBox="0 0 13 14" fill="none" xmlns="http://www.w3.org/2000/svg"><g clip-path="url(#clip0)"><path d="M1.848 13.35a1.438 1.438 0 01-1.436-1.435V9.986A1.43 1.43 0 011.68 8.562a6.957 6.957 0 001.254-.26 1.425 1.425 0 011.433.354l.78.78a8.992 8.992 0 003.55-3.56l-.778-.78a1.436 1.436 0 01-.354-1.437c.125-.408.212-.831.26-1.257a1.429 1.429 0 011.422-1.27h1.922a1.432 1.432 0 011.426 1.571 11.777 11.777 0 01-3.393 7.239 11.748 11.748 0 01-3.264 2.312 11.64 11.64 0 01-3.958 1.09 1.408 1.408 0 01-.13.005zm1.509-4.158a.497.497 0 00-.145.022 7.903 7.903 0 01-1.427.296.477.477 0 00-.42.477v1.927a.478.478 0 00.527.479c5.175-.478 9.277-4.59 9.754-9.777a.482.482 0 00-.478-.529H9.246a.477.477 0 00-.476.422 7.955 7.955 0 01-.295 1.43.482.482 0 00.116.482l1.268 1.271L9.706 6a9.937 9.937 0 01-4.438 4.45l-.307.152-1.268-1.27a.474.474 0 00-.336-.139z" fill="#fff"/></g><defs><clipPath id="clip0"><path fill="#fff" transform="translate(0 .733)" d="M0 0h13v13.031H0z"/></clipPath></defs></svg>