<svg xmlns="http://www.w3.org/2000/svg" viewBox="0 0 155.5 102.4">
  <path fill-rule="evenodd" clip-rule="evenodd" fill="#DFF1F9" d="M2 1.6h134v98.9H2z"/>
  <path fill="none" stroke="#DFF1F9" stroke-width=".567" stroke-miterlimit="22.926" d="M2 1.6h134v98.9H2z"/>
  <path fill="none" stroke="#8B9FA7" stroke-width="4" stroke-miterlimit="22.926" d="M135.5 67.7v32.7H2V2h133.5v27.6"/>
  <path fill="#8B9FA7" d="M133 29.3l19 33.9 3.5-2-18.9-33.9-3.6 2"/>
  <path fill-rule="evenodd" clip-rule="evenodd" fill="#FEFEFE" d="M57.8 23.400000000000002V38h-15V23.4h15z"/>
  <path fill="none" stroke="#8B9FA7" stroke-miterlimit="22.926" d="M57.8 23.400000000000002V38h-15V23.4h15z"/>
  <path fill-rule="evenodd" clip-rule="evenodd" fill="#FEFEFE" d="M26.9 9.6h14.6v28.5H26.9z"/>
  <path fill="none" stroke="#8B9FA7" stroke-miterlimit="22.926" d="M26.9 9.6h14.6v28.5H26.9z"/>
  <path fill-rule="evenodd" clip-rule="evenodd" fill="#FEFEFE" d="M57.8 14.299999999999999v7.6H42.9v-7.6h14.9z"/>
  <path fill="none" stroke="#8B9FA7" stroke-miterlimit="22.926" d="M57.8 14.299999999999999v7.6H42.9v-7.6h14.9z"/>
  <path fill-rule="evenodd" clip-rule="evenodd" fill="#FEFEFE" d="M106 77.3h9.5c1.2 0 2.1 1 2.1 2.1v12c0 1.2-1 2.1-2.1 2.1H106c-1.2 0-2.1-1-2.1-2.1v-12c0-1.1.9-2.1 2.1-2.1z"/>
  <path fill="none" stroke="#8B9FA7" stroke-miterlimit="22.926" d="M106 77.3h9.5c1.2 0 2.1 1 2.1 2.1v12c0 1.2-1 2.1-2.1 2.1H106c-1.2 0-2.1-1-2.1-2.1v-12c0-1.1.9-2.1 2.1-2.1z"/>
  <path fill-rule="evenodd" clip-rule="evenodd" fill="#FEFEFE" d="M104.3 74.5h12.9c.2 0 .4.2.4.4v2c0 .2-.2.4-.4.4h-12.9c-.2 0-.4-.2-.4-.4v-2c0-.2.2-.4.4-.4z"/>
  <path fill="none" stroke="#8B9FA7" stroke-miterlimit="22.926" d="M104.3 74.5h12.9c.2 0 .4.2.4.4v2c0 .2-.2.4-.4.4h-12.9c-.2 0-.4-.2-.4-.4v-2c0-.2.2-.4.4-.4z"/>
  <path fill-rule="evenodd" clip-rule="evenodd" fill="#FEFEFE" d="M121.2 82.6h6.4c.8 0 1.5.7 1.5 1.4v8.1c0 .8-.7 1.4-1.5 1.4h-6.4c-.8 0-1.5-.7-1.5-1.4V84c.1-.7.7-1.4 1.5-1.4z"/>
  <path fill="none" stroke="#8B9FA7" stroke-miterlimit="22.926" d="M121.2 82.6h6.4c.8 0 1.5.7 1.5 1.4v8.1c0 .8-.7 1.4-1.5 1.4h-6.4c-.8 0-1.5-.7-1.5-1.4V84c.1-.7.7-1.4 1.5-1.4z"/>
  <path fill-rule="evenodd" clip-rule="evenodd" fill="#FEFEFE" d="M120.1 80.7h8.7c.2 0 .3.1.3.3v1.3c0 .2-.1.3-.3.3h-8.7c-.2 0-.3-.1-.3-.3V81c0-.2.1-.3.3-.3z"/>
  <path fill="none" stroke="#8B9FA7" stroke-miterlimit="22.926" d="M120.1 80.7h8.7c.2 0 .3.1.3.3v1.3c0 .2-.1.3-.3.3h-8.7c-.2 0-.3-.1-.3-.3V81c0-.2.1-.3.3-.3z"/>
  <circle fill-rule="evenodd" clip-rule="evenodd" fill="#FEFEFE" cx="111.7" cy="26.3" r="13.5"/>
  <circle fill="none" stroke="#8B9FA7" stroke-miterlimit="22.926" cx="111.7" cy="26.3" r="13.5"/>
  <circle fill-rule="evenodd" clip-rule="evenodd" fill="#FEFEFE" cx="111.7" cy="26.3" r="9"/>
  <circle fill="none" stroke="#8B9FA7" stroke-miterlimit="22.926" cx="111.7" cy="26.3" r="9"/>
  <circle fill-rule="evenodd" clip-rule="evenodd" fill="#FEFEFE" cx="111.7" cy="26.3" r="6.3"/>
  <circle fill="none" stroke="#8B9FA7" stroke-miterlimit="22.926" cx="111.7" cy="26.3" r="6.3"/>
  <path fill-rule="evenodd" clip-rule="evenodd" fill="#FEFEFE" d="M121.9 49.6h-20.7c-1.6 0-3 1.3-3 3v2.5c0 1.6 1.3 3 3 3h20.7c1.6 0 3-1.3 3-3v-2.5c-.1-1.7-1.4-3-3-3z"/>
  <path fill="none" stroke="#8B9FA7" stroke-miterlimit="22.926" d="M121.9 49.6h-20.7c-1.6 0-3 1.3-3 3v2.5c0 1.6 1.3 3 3 3h20.7c1.6 0 3-1.3 3-3v-2.5c-.1-1.7-1.4-3-3-3zM103.2 58c1-.8 4.3-5.1 4.7-6.3M107.4 58c1-.8 4.3-5.1 4.7-6.3M110.8 58c1-.8 4.3-5.1 4.7-6.3M115.1 58c1-.8 4.3-5.1 4.7-6.3M120 58c1-.8 4.3-5.1 4.7-6.3M100.1 49.6c1 .8 4.3 5.1 4.7 6.3M104.3 49.6c1 .8 4.3 5.1 4.7 6.3M107.7 49.6c1 .8 4.3 5.1 4.7 6.3M112 49.6c1 .8 4.3 5.1 4.7 6.3M116.9 49.6c1 .8 4.3 5.1 4.7 6.3"/>
  <path fill-rule="evenodd" clip-rule="evenodd" fill="#FEFEFE" d="M121.9 40.3h-20.7c-1.6 0-3 1.3-3 3v2.5c0 1.6 1.3 3 3 3h20.7c1.6 0 3-1.3 3-3v-2.5c-.1-1.6-1.4-3-3-3z"/>
  <path fill="none" stroke="#8B9FA7" stroke-miterlimit="22.926" d="M121.9 40.3h-20.7c-1.6 0-3 1.3-3 3v2.5c0 1.6 1.3 3 3 3h20.7c1.6 0 3-1.3 3-3v-2.5c-.1-1.6-1.4-3-3-3zM103.2 48.8c1-.8 4.3-5.1 4.7-6.3M107.4 48.8c1-.8 4.3-5.1 4.7-6.3M110.8 48.8c1-.8 4.3-5.1 4.7-6.3M115.1 48.8c1-.8 4.3-5.1 4.7-6.3M120 48.8c1-.8 4.3-5.1 4.7-6.3M100.1 40.3c1 .8 4.3 5.1 4.7 6.3M104.3 40.3c1 .8 4.3 5.1 4.7 6.3M107.7 40.3c1 .8 4.3 5.1 4.7 6.3M112 40.3c1 .8 4.3 5.1 4.7 6.3M116.9 40.3c1 .8 4.3 5.1 4.7 6.3"/>
  <path fill-rule="evenodd" clip-rule="evenodd" fill="#FEFEFE" d="M12.9 93V34.4c0-.4-.4-7.4-.5-7.8L8.5 16.1c-.1-.3.1 17.9.1 18.3V93c0 .4.3.7.7.7h2.9c.4 0 .7-.3.7-.7z"/>
  <path fill="none" stroke="#8B9FA7" stroke-miterlimit="22.926" d="M12.9 93V34.4c0-.4-.4-7.4-.5-7.8L8.5 16.1c-.1-.3.1 17.9.1 18.3V93c0 .4.3.7.7.7h2.9c.4 0 .7-.3.7-.7z"/>
  <circle fill-rule="evenodd" clip-rule="evenodd" fill="#FEFEFE" cx="84.2" cy="79" r="14.7"/>
  <circle fill="none" stroke="#8B9FA7" stroke-miterlimit="22.926" cx="84.2" cy="79" r="14.7"/>
  <circle fill-rule="evenodd" clip-rule="evenodd" fill="#FEFEFE" cx="38.3" cy="79" r="14.7"/>
  <circle fill="none" stroke="#8B9FA7" stroke-miterlimit="22.926" cx="38.3" cy="79" r="14.7"/>
  <path fill="none" stroke="#8B9FA7" stroke-miterlimit="22.926" d="M53.1 67.7L49.4 58M52.2 57.8h-8.3M66.4 46.6h-8.3"/>
  <circle fill-rule="evenodd" clip-rule="evenodd" fill="#DFF1F9" cx="38.3" cy="79" r="12.1"/>
  <circle fill="none" stroke="#8B9FA7" stroke-miterlimit="22.926" cx="38.3" cy="79" r="12.1"/>
  <circle fill-rule="evenodd" clip-rule="evenodd" fill="#DFF1F9" cx="84.2" cy="79" r="12.3"/>
  <circle fill="none" stroke="#8B9FA7" stroke-miterlimit="22.926" cx="84.2" cy="79" r="12.3"/>
  <path fill="none" stroke="#8B9FA7" stroke-miterlimit="22.926" d="M81.4 75.1L38.3 79 68 56.4l-4.8-9.5M84.2 79L68 56.4"/>
  <path fill-rule="evenodd" clip-rule="evenodd" fill="#FEFEFE" d="M9.3 64.1h3.6c1.1 0 2 .9 2 2s-.9 2-2 2H9.3c-1.1 0-2-.9-2-2s.9-2 2-2z"/>
  <path fill="none" stroke="#8B9FA7" stroke-miterlimit="22.926" d="M9.3 64.1h3.6c1.1 0 2 .9 2 2s-.9 2-2 2H9.3c-1.1 0-2-.9-2-2s.9-2 2-2z"/>
  <path fill-rule="evenodd" clip-rule="evenodd" fill="#FEFEFE" d="M8.5 79.9v-3.6c0-1.1.9-2 2-2s2 .9 2 2v3.6c0 1.1-.9 2-2 2s-2-1-2-2z"/>
  <path fill="none" stroke="#8B9FA7" stroke-miterlimit="22.926" d="M8.5 79.9v-3.6c0-1.1.9-2 2-2s2 .9 2 2v3.6c0 1.1-.9 2-2 2s-2-1-2-2z"/>
  <path fill-rule="evenodd" clip-rule="evenodd" fill="#FEFEFE" d="M18.9 93V34.4c0-.4-.4-7.4-.5-7.8l-3.9-10.5c-.1-.3.1 17.9.1 18.3V93c0 .4.3.7.7.7h2.9c.4 0 .7-.3.7-.7z"/>
  <path fill="none" stroke="#8B9FA7" stroke-miterlimit="22.926" d="M18.9 93V34.4c0-.4-.4-7.4-.5-7.8l-3.9-10.5c-.1-.3.1 17.9.1 18.3V93c0 .4.3.7.7.7h2.9c.4 0 .7-.3.7-.7z"/>
  <path fill-rule="evenodd" clip-rule="evenodd" fill="#FEFEFE" d="M15.3 64.1h3.6c1.1 0 2 .9 2 2s-.9 2-2 2h-3.6c-1.1 0-2-.9-2-2s.9-2 2-2z"/>
  <path fill="none" stroke="#8B9FA7" stroke-miterlimit="22.926" d="M15.3 64.1h3.6c1.1 0 2 .9 2 2s-.9 2-2 2h-3.6c-1.1 0-2-.9-2-2s.9-2 2-2z"/>
  <path fill-rule="evenodd" clip-rule="evenodd" fill="#FEFEFE" d="M14.5 79.9v-3.6c0-1.1.9-2 2-2s2 .9 2 2v3.6c0 1.1-.9 2-2 2s-2-1-2-2z"/>
  <path fill="none" stroke="#8B9FA7" stroke-miterlimit="22.926" d="M14.5 79.9v-3.6c0-1.1.9-2 2-2s2 .9 2 2v3.6c0 1.1-.9 2-2 2s-2-1-2-2z"/>
</svg>
