<?xml version="1.0" encoding="utf-8"?>
<!-- Generator: Adobe Illustrator 19.0.1, SVG Export Plug-In . SVG Version: 6.00 Build 0)  -->
<svg version="1.1" id="Слой_1" xmlns="http://www.w3.org/2000/svg" xmlns:xlink="http://www.w3.org/1999/xlink" x="0px" y="0px"
	 viewBox="-285 410.9 24 20" enable-background="new -285 410.9 24 20" xml:space="preserve">
<path id="path-1" fill="#FFFEA3" d="M-265.5,421.9h-4.7c-0.4,1.2-1.5,2-2.8,2s-2.4-0.8-2.8-2h-4.7c-1.4,0-2.5,1.1-2.5,2.5
	c0,1.4,1.1,2.5,2.5,2.5h13.7c0.4-1.2,1.5-2,2.8-2c1.7,0,3,1.3,3,3c0,1.7-1.3,3-3,3c-1.3,0-2.4-0.8-2.8-2h-13.7c-2.5,0-4.5-2-4.5-4.5
	c0-2.5,2-4.5,4.5-4.5h4.7c0.4-1.2,1.5-2,2.8-2s2.4,0.8,2.8,2h4.7c1.4,0,2.5-1.1,2.5-2.5c0-1.4-1.1-2.5-2.5-2.5h-13.7
	c-0.4,1.2-1.5,2-2.8,2c-1.7,0-3-1.3-3-3c0-1.7,1.3-3,3-3c1.3,0,2.4,0.8,2.8,2h13.7c2.5,0,4.5,2,4.5,4.5
	C-261,419.9-263,421.9-265.5,421.9z M-273,419.9c-0.6,0-1,0.4-1,1c0,0.6,0.4,1,1,1s1-0.4,1-1C-272,420.3-272.4,419.9-273,419.9z"/>
</svg>
