<?xml version="1.0" encoding="utf-8"?>
<!-- Generator: Adobe Illustrator 19.0.1, SVG Export Plug-In . SVG Version: 6.00 Build 0)  -->
<svg version="1.1" id="Слой_1" xmlns="http://www.w3.org/2000/svg" xmlns:xlink="http://www.w3.org/1999/xlink" x="0px" y="0px"
	 viewBox="-285 408.9 24 24" enable-background="new -285 408.9 24 24" xml:space="preserve">
<path id="path-1" fill="#FFFEA3" d="M-267,421.5c0,0.4,0,0.8,0,1c0,4.1-6,2.5-6,2.5s1.5,6-2.6,6c-1.9,0-0.5,0-7.4,0v-20h14.1l2-2
	h-18v24h10.2c3.2,0,9.8-7.2,9.8-9.6v-3.8L-267,421.5z M-261,412.5l-7.3,7.4l-3.4-3.4l7.3-7.4L-261,412.5z M-272.7,417.6l3.3,3.3
	l-4.4,1L-272.7,417.6z M-275,421.9h-4v-1h4V421.9z"/>
</svg>
