<?xml version="1.0" encoding="utf-8"?>
<!-- Generator: Adobe Illustrator 19.0.1, SVG Export Plug-In . SVG Version: 6.00 Build 0)  -->
<svg version="1.1" id="icons_1_" xmlns="http://www.w3.org/2000/svg" xmlns:xlink="http://www.w3.org/1999/xlink" x="0px" y="0px"
	 viewBox="0 0 138.6 52" enable-background="new 0 0 138.6 52" xml:space="preserve">
<g>
	<g>
		<radialGradient id="SVGID_1_" cx="128.0201" cy="3.573" r="121.3997" gradientUnits="userSpaceOnUse">
			<stop  offset="6.637450e-002" style="stop-color:#FF8C00"/>
			<stop  offset="1" style="stop-color:#FF0000"/>
		</radialGradient>
		<path fill="url(#SVGID_1_)" d="M138.2,24.9c-0.3-0.2-0.6-0.4-0.9-0.4c-0.3,0-0.6,0.1-0.9,0.3c-1.3,1-2.3,1.5-3.3,1.5
			c-1.5,0-2.8-1.3-4.4-2.7c-1.4-1.3-3-2.8-5.1-3.7c-0.9-0.4-1.9-0.6-3.1-0.6c-1.9,0-4.1,0.5-6.1,1c-1.9,0.4-3.7,0.9-5.1,0.9
			c-1,0-1.8-0.2-2.3-0.7c-1.4-1.2-1.1-2-1-2.2c0.7-1.7,4.4-3.3,7.7-3.3c1,0,1.8,0.2,2.3,0.4c0.2,0.1,0.6,0.3,0.9,0.5
			c1.5,0.9,3.8,2.3,6.1,2.3c1.8,0,3.3-0.8,4.3-2.4c0.3-0.5,0.3-1.1-0.1-1.6c-0.3-0.3-0.7-0.5-1.1-0.5c-0.1,0-0.3,0-0.4,0.1
			c-0.3,0.1-0.5,0.1-0.8,0.1c-2.3,0-4.5-4-6-6.6c-0.5-0.9-1-1.7-1.4-2.4c-2.1-3.2-5.4-4.9-9.1-4.9c-3.3,0-6.5,1.4-8.6,3.8
			c-1,1.1-1.8,2.4-2.7,3.6c-1.9,2.9-3.6,5.4-6.2,5.4c-0.3,0-0.5,0-0.8-0.1c-1.4-0.3-2.1-1-1.9-2.2c0.2-2,2.2-4.4,4.3-4.4
			c0.4,0,0.7,0.1,1.1,0.2c0.2,0.1,0.3,0.1,0.5,0.1c0.4,0,0.9-0.2,1.1-0.6c0.4-0.5,0.3-1.2-0.1-1.7c-1.4-1.6-3.3-3.5-5.9-3.7
			c-1.7-0.1-3.3-0.2-4.7-0.2c-0.8,0-1.6,0-2.3,0.1H0V52h83.2c0.2,0,0.3,0,0.5,0c0.3,0,0.7,0,1.1,0h0c2.9,0,5.5-0.4,8-0.7
			c2.1-0.3,4-0.6,5.9-0.6c2.2,0,4.1,0.4,5.9,1.2c0.2,0.1,0.4,0.1,0.6,0.1c0.4,0,0.8-0.2,1.1-0.5c0.4-0.5,0.4-1.2,0.1-1.7
			c-3.2-4.5-5.5-5.4-8.1-5.4c-0.3,0-0.6,0-0.8,0c-0.3,0-0.5,0-0.8,0c-1,0-2.1-0.1-3.7-1.3c-1.2-1-1.9-2.9-1.6-3.9
			c0.1-0.2,0.2-0.5,1-0.5c0.2,0,0.4,0,0.6,0c2.1,0.3,4.3,2.3,6.4,4.1c2.1,1.8,4.1,3.6,6.1,4c0.7,0.1,1.5,0.2,2.2,0.2
			c4,0,6.8-1.9,9.3-3.7c2-1.3,3.6-2.5,5.4-2.5c0.5,0,1.1,0.1,1.6,0.3c0.2,0.1,0.3,0.1,0.5,0.1c0.5,0,1-0.3,1.2-0.7
			c0.3-0.6,0.2-1.3-0.3-1.8c-1.1-1-2.4-1.4-3.9-1.4c-1.2,0-2.4,0.3-3.6,0.6c-1,0.3-2,0.5-2.9,0.5c-0.2,0-0.4,0-0.6,0
			c-1.9-0.3-1.9-1.9-1.9-2.4c0.1-1.1,0.8-2.3,2.3-2.3l0.1,0c1.8,0.1,3.3,0.8,4.9,1.6c1.8,0.9,3.7,1.7,5.9,1.7c1.3,0,2.5-0.3,3.8-0.9
			c3.9-1.8,6.3-5.5,8.4-8.7l0.5-0.8C138.8,26.2,138.7,25.4,138.2,24.9z"/>
		<path fill="#FFFFFF" d="M137.2,26L137.2,26L137.2,26z"/>
	</g>
	<g>
		<path fill="#FFFFFF" d="M8.6,26V15.6h7.1v2H11V26H8.6z"/>
		<path fill="#FFFFFF" d="M17.1,20.8c0-1.7,0.5-3,1.5-4c0.9-0.9,2.2-1.4,3.6-1.4c1.5,0,2.7,0.5,3.6,1.4c1,1,1.5,2.3,1.5,4
			c0,1.7-0.5,3.1-1.5,4c-0.9,0.9-2.2,1.4-3.7,1.4c-1.5,0-2.7-0.5-3.6-1.4C17.6,23.9,17.1,22.5,17.1,20.8z M19.5,20.8
			c0,0.5,0.1,1,0.2,1.4c0.1,0.4,0.3,0.8,0.5,1.1c0.5,0.6,1.2,0.9,2,0.9s1.5-0.3,2-0.9c0.5-0.6,0.7-1.4,0.7-2.4c0-1-0.2-1.8-0.7-2.4
			c-0.5-0.6-1.2-0.9-2-0.9c-0.9,0-1.5,0.3-2,0.9C19.7,19,19.5,19.8,19.5,20.8z"/>
		<path fill="#FFFFFF" d="M29.7,26V15.8c0.9-0.2,2-0.3,3.1-0.3c1.5,0,2.7,0.3,3.6,0.8c0.8,0.5,1.2,1.4,1.2,2.7
			c0,1.2-0.4,2.1-1.3,2.7c-0.8,0.6-2,0.8-3.6,0.8H32V26H29.7z M32,20.5h0.7c0.8,0,1.4-0.1,1.8-0.3c0.4-0.2,0.6-0.6,0.6-1.2
			c0-0.8-0.4-1.3-1.3-1.4c-0.3,0-0.6-0.1-0.9-0.1s-0.6,0-1,0V20.5z"/>
		<path fill="#FFFFFF" d="M39.1,26c0.7-1.6,1.5-3,2.4-4.2c-0.8-0.4-1.4-1-1.6-1.8c-0.1-0.3-0.2-0.7-0.2-1.2s0.1-0.9,0.3-1.4
			s0.5-0.8,1-1.1c0.8-0.6,2-0.9,3.5-0.9c1.1,0,2.1,0.1,3.1,0.3V26h-2.3v-3.7c-0.4,0-0.7,0-0.9,0s-0.4,0-0.6,0
			c-0.7,1-1.5,2.3-2.2,3.8H39.1z M42.1,19c0,0.5,0.2,0.9,0.6,1.1c0.4,0.2,0.9,0.3,1.7,0.3h1v-2.8c-0.1,0-0.3,0-0.4,0h-0.6
			c-1,0-1.7,0.2-2,0.7C42.2,18.4,42.1,18.7,42.1,19z"/>
		<path fill="#FFFFFF" d="M50.4,26V15.6h2.3V24h2.9v-8.4H58V24h2.9v-8.4h2.3V24H65v4.7h-2.2V26H50.4z"/>
		<path fill="#FFFFFF" d="M66.9,26V15.6h7v2h-4.7v2h4.1v1.9h-4.1V24h5v2H66.9z"/>
		<path fill="#FFFFFF" d="M76.3,26V15.6h7v2h-4.7v2h4.1v1.9h-4.1V24h5v2H76.3z"/>
		<path fill="#FFFFFF" d="M8.4,37v-6.4h5.2V37h-1.4v-5.2H9.8V37H8.4z"/>
		<path fill="#FFFFFF" d="M15.3,37v-6.3c0.6-0.1,1.2-0.2,1.9-0.2c1,0,1.7,0.2,2.2,0.5c0.5,0.3,0.8,0.9,0.8,1.6
			c0,0.8-0.3,1.3-0.8,1.7c-0.5,0.3-1.3,0.5-2.2,0.5h-0.5V37H15.3z M16.8,33.7h0.5c0.5,0,0.9-0.1,1.1-0.2s0.4-0.4,0.4-0.8
			c0-0.5-0.3-0.8-0.8-0.9c-0.2,0-0.4,0-0.5,0s-0.4,0-0.6,0V33.7z"/>
		<path fill="#FFFFFF" d="M21.5,37v-6.4h4.3v1.2h-2.9v1.3h2.6v1.2h-2.6v1.5H26V37H21.5z"/>
		<path fill="#FFFFFF" d="M26.7,35.8h0.9c0.6-1,0.9-2.2,0.9-3.6c0-0.4,0-0.9,0-1.3v-0.2h4.2v5.2h1.1v2.9h-1.4V37h-4.4v1.7h-1.4V35.8
			z M29.2,35.8h2.3v-4H30C29.9,33.6,29.6,35,29.2,35.8z"/>
		<path fill="#FFFFFF" d="M34.7,35.9c0.4,0,0.8-0.2,1-0.3c0.2-0.2,0.4-0.5,0.6-0.9c0.3-0.8,0.4-2.1,0.4-4H41V37h-1.4v-5.2H38
			c0,1.1-0.1,1.9-0.2,2.3s-0.2,0.8-0.3,1.2S37.2,36,37,36.3c-0.5,0.6-1.2,0.8-2.1,0.9L34.7,35.9z"/>
		<path fill="#FFFFFF" d="M42.4,33.8c0-1,0.3-1.9,1-2.5c0.6-0.6,1.3-0.8,2.2-0.8c0.9,0,1.7,0.3,2.2,0.8c0.6,0.6,0.9,1.4,0.9,2.5
			c0,1.1-0.3,1.9-0.9,2.5c-0.6,0.6-1.3,0.8-2.3,0.8c-0.9,0-1.7-0.3-2.2-0.8C42.7,35.7,42.4,34.9,42.4,33.8z M43.9,33.9
			c0,0.3,0,0.6,0.1,0.8c0.1,0.3,0.2,0.5,0.3,0.6c0.3,0.4,0.7,0.6,1.2,0.6s0.9-0.2,1.2-0.6c0.3-0.4,0.4-0.9,0.4-1.5
			c0-0.6-0.1-1.1-0.4-1.5c-0.3-0.4-0.7-0.6-1.2-0.6c-0.5,0-0.9,0.2-1.2,0.6C44.1,32.7,43.9,33.2,43.9,33.9z"/>
		<path fill="#FFFFFF" d="M49.2,37c0.8-1.5,1.7-2.6,2.5-3.3c-0.7-0.8-1.6-1.8-2.5-3H51c0.6,0.8,1.2,1.7,2,2.6v-2.6h1.4v2.6
			c0.2-0.2,0.4-0.4,0.5-0.6c0.2-0.2,0.3-0.4,0.5-0.6c0.3-0.4,0.7-0.9,1-1.3h1.7c-0.2,0.3-0.4,0.6-0.6,0.8c-0.2,0.3-0.4,0.5-0.6,0.7
			c-0.4,0.5-0.9,1-1.3,1.5c0.9,0.8,1.7,1.9,2.5,3.4h-1.6c-0.6-1-1.1-1.6-1.4-2c-0.3-0.3-0.5-0.6-0.7-0.9V37H53v-2.9
			C52.2,35,51.5,36,50.8,37H49.2z"/>
		<path fill="#FFFFFF" d="M59.2,37v-6.4h4.3v1.2h-2.9v1.3h2.6v1.2h-2.6v1.5h3.1V37H59.2z"/>
		<path fill="#FFFFFF" d="M65,37v-6.4h1.4v2.4h2.4v-2.4h1.4V37h-1.4v-2.7h-2.4V37H65z"/>
		<path fill="#FFFFFF" d="M71.9,37v-6.4h1.4v3.8c0.8-1.2,1.5-2.2,2.2-3c0.2-0.3,0.5-0.5,0.7-0.7h1.2V37H76v-4.2
			c-1,1.2-2,2.6-2.9,4.2H71.9z"/>
		<path fill="#FFFFFF" d="M79.1,37v-6.4h4.3v1.2h-2.9v1.3h2.6v1.2h-2.6v1.5h3.1V37H79.1z"/>
	</g>
</g>
</svg>
