<?xml version="1.0" encoding="utf-8"?>
<!-- Generator: Adobe Illustrator 19.0.1, SVG Export Plug-In . SVG Version: 6.00 Build 0)  -->
<svg version="1.1" id="Режим_изоляции"
	 xmlns="http://www.w3.org/2000/svg" xmlns:xlink="http://www.w3.org/1999/xlink" x="0px" y="0px" viewBox="0 0 155.5 236.5"
	 enable-background="new 0 0 155.5 236.5" xml:space="preserve">
<g>
	<defs>
		<path id="SVGID_1_" d="M77.7,0c42.9,0,77.7,34.8,77.7,77.7c0,15.4-4.5,29.7-12.1,41.7L78.2,236.5L12.4,119.9
			C4.6,107.7,0,93.3,0,77.7C0,34.8,34.8,0,77.7,0"/>
	</defs>
	<clipPath id="SVGID_2_">
		<use xlink:href="#SVGID_1_"  overflow="visible"/>
	</clipPath>
	<linearGradient id="SVGID_3_" gradientUnits="userSpaceOnUse" x1="71.0446" y1="51.7348" x2="98.6745" y2="326.7548">
		<stop  offset="0" style="stop-color:#E50054"/>
		<stop  offset="0.1001" style="stop-color:#E61355"/>
		<stop  offset="0.2573" style="stop-color:#E83855"/>
		<stop  offset="0.4519" style="stop-color:#EC6053"/>
		<stop  offset="0.6763" style="stop-color:#F28D46"/>
		<stop  offset="0.9229" style="stop-color:#FCBD11"/>
		<stop  offset="1" style="stop-color:#FFCC00"/>
	</linearGradient>
	<rect clip-path="url(#SVGID_2_)" fill="url(#SVGID_3_)" width="155.5" height="236.5"/>
</g>
<path fill-rule="evenodd" clip-rule="evenodd" fill="#FFFFFF" d="M57.4,93.6L57.4,93.6v2.7l-7,2.8v-2.7L57.4,93.6z M57.4,82.8
	L57.4,82.8v2.7l-7,2.8v-2.7L57.4,82.8z M57.4,72L57.4,72v2.7l-7,2.8v-2.7L57.4,72z M57.4,61.2L57.4,61.2v2.7l-7,2.8V64L57.4,61.2z
	 M57.4,99L57.4,99l-7,2.8v2.4l7-2.7V99z M57.4,88.2L57.4,88.2l-7,2.8v2.7l7-2.8V88.2z M57.4,77.4L57.4,77.4l-7,2.8v2.7l7-2.8V77.4z
	 M57.4,66.6L57.4,66.6l-7,2.8v2.7l7-2.8V66.6z M57.4,55.8L57.4,55.8l-7,2.8v2.7l7-2.8V55.8z M76.1,59.1L76.1,59.1l-7,2.8v-2.7l7-2.8
	v-2.7l-7,2.8V58l-9.4-7v44.9v0v4.8l9.4-3.6l7-2.8v-2.7l-7,2.8v-2.7l7-2.8v-2.7l-7,2.8v-2.7l7-2.8v-2.7l-7,2.8v-2.7l7-2.8v-2.7
	l-7,2.8v-2.7l7-2.8v-2.7l-7,2.8V70l7-2.8v-2.7l-7,2.8v-2.7l7-2.8V59.1z M76.1,48.3L76.1,48.3l-7,2.8v2.7l7-2.8V48.3z M94.8,62.7
	l-7,2.8V50.4l-9.4-7v44.9v5.2l9.4-3.6l7-2.8v-2.7l-7,2.8v-2.7l7-2.8v-2.7l-7,2.8v-2.7l7-2.8v-2.7l-7,2.8v-2.7l7-2.8v-2.7l-7,2.8
	v-2.7l7-2.8V62.7z M97.1,57.4l9.4,7l0,18.3l-9.4,3.6V57.4z M129.7,104.1c-9.5,18.7-29,31.5-51.3,31.5c-7.3,0-14.3-1.4-20.7-3.9
	L91,118.9c1.8-0.6,3.5-1.2,5.2-2L129.7,104.1z M69.9,102.8L69.9,102.8c0.6-0.9,1.1-0.6,1.3,0.2c0.3,1.5-1,4.4-2.7,5.6
	c-0.1,0.5-0.2,1.1-0.3,1.6c0.4-0.4,1.1-0.4,1.3,0c0.8,1.2-0.3,4.8-1.2,6.1c-0.1,0.2-0.4,0.6-0.7,0.4c-0.2-0.1-0.3-0.3-0.3-0.5
	C66.8,113.8,68.3,105.5,69.9,102.8z M95.2,103.5l0.6-1c0,0.2-0.1,0.5-0.1,0.7c-0.2,1.5,0,2.6,0.4,3.1c0.3,0.4,0.6,0.3,1,0.1
	c1.4-0.7,2.4-3,3.4-5.3c-0.1,1.6,0,2.8,0.4,3.3c0.1,0.1,0.2,0.2,0.4,0.3c0.2,0.1,0.4-0.1,0.7-0.2c1.3-0.9,2.5-3.3,3.7-5.6
	c-0.3,1.5-0.4,3-0.5,4.3l2.3-1.2c0.9-3.3,2.6-7.1,3.4-7.9c-0.6,2.3-1.1,4.8-0.7,7.1l2.2-1.1c1.8-5.6,2.6-6.6,3.3-7.3
	c-0.8,1.6-1.4,5.7-0.4,6.2c0.3,0.1,0.5,0,0.8-0.2c0.9-0.6,1.9-2,3-4.1c0,0.1,0,0.1,0,0.2c0.3,1.4,0.9,2.2,2.2,2.2
	c1.4-0.1,3.3-2.8,5.5-6.6l0.4-0.8c-0.3,1.8-0.4,3.7-0.4,5l2-1.1c1.1-3.5,2.2-6.6,3.4-7.8c-0.9,2.6-1.3,5-1,6.9l2.2-0.9
	c1.2-3.8,2.3-5.6,3.4-7c-0.9,2.6-1.2,4.6-0.6,5.7c0.3,0.6,0.7,0.6,1.3,0.6c2-0.1,3.9-2.1,4.4-3.3c0,0-0.2-0.1-0.2-0.1
	c-0.5,0.9-1.4,1.7-2.2,2.1c-0.2,0.1-0.5,0.3-0.7,0.2c-0.5-0.1-0.6-0.9-0.6-1.3c-0.1-2.1,1.5-6.1,3.1-8.5l-0.2-0.2l-3.1,1.1
	c-1.6,2.2-3.1,4.5-4.2,7.2c0.4-2,1.1-4.2,1.9-6.3l-0.1-0.1l-2.5,0.9c-1.8,1.9-2.9,4.8-3.3,5.5c0.5-2.3,1.1-4,1.6-4.9l-0.2-0.1
	l-2.6,1.2c-0.3,0.5-0.6,1.3-0.9,2.4c-0.3,0.8-0.6,1.6-0.9,2.4c-0.6,1.5-1.9,3.4-2.9,4.7c-0.3,0.3-1,1.3-1.4,1.2
	c-0.1,0-0.3-0.2-0.4-0.5c-0.8-1.8,0.3-5.7,1.1-7c0.2-0.4,0.8-0.7,0.9-0.1c0.3,1-0.6,4.5-1.7,4.6c0,0.2,0,0.5,0,0.7
	c2.8-1.8,3.9-3.6,4.2-5.1c0.2-1.3-0.8-1.6-1.9-1.5c-0.6,0-1.2,0.2-1.8,0.5c-2.4,1.4-3.1,3.8-3.7,6.1c-0.1,0.2-0.1,0.5-0.2,0.7
	c-0.2,0.6-0.5,1.2-0.8,1.8c-0.1,0.2-0.6,1-0.7,1c-0.1,0-0.1-0.3-0.1-0.4c0-2.8,0.9-5.5,2.2-7.1c-0.1-0.1-0.1-0.1-0.2-0.2l-2.9,1.1
	c-1.6,2.1-2.5,4-3.5,6.1c0.3-2.1,0.8-4.1,1.9-5.5c-0.1,0-0.1-0.1-0.2-0.1l-2.7,0.9c-1.2,1.1-2.3,3-3.5,5.7c0.3-1.8,0.7-3.5,1.6-4.9
	c-0.1,0-0.1-0.1-0.2-0.1l-2.9,1.5c-0.3,1.1-0.6,2.3-0.9,3.6c-1,2.2-2.1,4.4-2.7,4.9c0,0-0.1,0.1-0.2,0.1c-0.1,0-0.1-0.2-0.1-0.3
	c0.4-3.4,1.1-6,2.1-7.6l-0.1-0.2l-3.4,1.6l-0.2,0.8c-0.4,1.9-1.4,5.6-2.7,7.3c-0.1,0.1-0.3,0.4-0.4,0.3c-0.1,0-0.1-0.2-0.1-0.3
	c0.2-2.3,1.4-7,2.2-7.6l-0.1-0.2l-2.7,1.3l-0.3,0.6c-0.3,0.7-0.6,1.5-0.8,2.3l-0.8,1.9c-1.4,3.2-2.7,5.2-3.5,5.3
	c-0.1,0-0.2,0-0.3-0.1c-0.9-0.9-0.1-5.5,0.8-7c0.2-0.3,0.5-0.6,0.6-0.6c0.4,0.1,0.3,1.1,0.2,1.4c0,0.2-0.1,0.3-0.1,0.5
	c0,0.1-0.1,0.3-0.1,0.4c-0.1,0.2-0.1,0.4-0.2,0.6c-0.1,0.2-0.2,0.4-0.3,0.6l0.6,0.2c0.2-0.2,0.4-0.5,0.7-0.7
	c0.1-0.1,0.2-0.2,0.3-0.3c0.3-0.3,0.6-0.6,0.8-1c0.1-0.2,0.2-0.3,0.2-0.5c0.1-0.1,0.1-0.2,0.1-0.4c0-0.2,0.1-0.5,0-0.8
	c0-0.4-0.2-0.7-0.4-0.9c-0.1-0.1-0.3-0.2-0.4-0.2c-0.5-0.1-1.1-0.1-1.7,0.2c-0.8,0.4-1.5,1-2,1.7c-0.6,0.7-1.1,1.7-1.5,3.2
	c-0.2,0.9-0.4,1.7-0.4,2.6c-0.4,0.8-0.8,1.6-1.3,2.4c-0.1,0.1-0.4,0.5-0.5,0.5c-0.1,0-0.1-0.4-0.1-0.5c0.1-2.3,0.8-5.6,2.3-8.1
	l-0.2-0.2l-2,0.8c-1.2,0.8-2.5,2.7-4,5.4c0.8-3,1.5-4.9,2.8-7.4l-0.2-0.2l-3.1,1.6c-0.6,1.4-1.1,3.4-1.6,5.7l-0.5,1.2
	c-1.3,3.2-3.7,6.6-4.6,5.9c-0.7-0.4-0.7-2.8,0.2-5.6c0-0.2,0.1-0.3,0.1-0.5c0.2-0.6,0.6-1.7,1.2-1.5c0.4,0.2,0.4,0.7,0.3,1.4
	c-0.1,0.7-0.3,1.5-0.6,2.1c-0.3,0.5-0.7,0.9-1.2,1.2c0,0.2,0,0.4-0.1,0.6c0.9-0.4,1.7-0.9,2.6-1.9c0.9-0.9,1.7-2,1.6-3.3
	c0-0.5-0.2-0.9-0.7-1.1c-0.6-0.3-1.7-0.1-2.2,0.1c-1.6,0.7-2.9,1.9-3.8,4.3c-0.4,0.9-0.9,1.9-1.3,2.5c0.1-2.3-0.4-3.2-2.8-2.2l0-0.1
	c1-0.8,3.3-2.4,4.1-4.1c0.1-0.1,0.1-0.3,0.2-0.4c0.5-1.5-0.1-2.7-1.2-2.9c-0.3-0.1-0.6,0-0.9,0c-3.3,0.6-5.6,4.2-6.6,10.8
	c-0.6,1.9-1.1,3.9-2.4,5.6c-0.1,0.1-0.2,0.3-0.3,0.3c-0.1,0-0.1-0.3-0.1-0.4c0.2-3.2,0.9-5.9,2-7.9l-0.2-0.1l-3.2,1.6l-0.3,1.2
	c-0.2,0.7-0.5,2-0.7,3c0,0.2-0.1,0.4-0.1,0.6c0,0.2-0.1,0.3-0.2,0.5c-0.4,1-0.7,1.5-1.1,2.1c-0.1,0.1-0.1,0.2-0.2,0.3
	c0,0.1-0.1,0.1-0.1,0.2c-0.1,0.1-0.1,0.1-0.2,0.1c-0.1,0-0.1-0.1-0.1-0.2c0.1-2.1,0.8-6.2,1.9-7.5l-0.1-0.3l-3.2,1.5l-0.2,0.8
	c-0.2,1.1-0.5,2.3-0.7,3.4c-0.4,1.2-0.7,2.3-1.3,3.4c-0.1,0.3-0.9,1.4-1.1,1.4c-0.5-0.1-0.1-2.3-0.1-2.6c0.2,0,0.5,0,0.8,0
	c0-0.6,0.2-1.1,0.5-1.7c-0.4,0-0.8,0.1-1.1,0.2c0.4-1.9,0.9-3.6,1.7-4.5l-0.1-0.2l-3.3,1.5l-0.2,0.7c-0.3,1.1-0.5,2.1-0.7,3.2
	c-0.5,0.2-1,0.3-1.6,0.5c0.1-0.7,0.2-1.3,0.3-1.9c0-0.1,0-0.2,0.1-0.3c0.1-0.5,0.3-0.9,0.5-1.3L50,115l-3,1.2l-0.2,0.8
	c-0.1,0.8-0.3,1.7-0.4,2.6c-0.5,0.2-1,0.4-1.5,0.6c0-0.2,0.1-0.4,0.1-0.6c0.3-1.1,0.4-2.3,0.6-3.4c0.2-1.1,0.3-2.2,0.5-3.3
	c0-0.3,0.1-0.7,0.1-1c0-0.1,0-0.2,0-0.2c0.1-0.5,0.3-0.9,0.5-1.2c0,0,0,0,0,0l-0.1-0.1c0,0,0,0,0,0l-3.5,1.7l-0.1,0.9c0,0,0,0,0,0.1
	c0,0.2,0,0.4,0,0.6c0,0.1,0,0.1,0,0.2c-0.5,2.3-1.4,4.1-2.8,5.7c-0.1,0.1-0.4,0.3-0.4,0c0.1-1.1,0.3-3,0.4-4.6c0-0.1,0-0.2,0-0.3
	c0-0.8-0.2-1.4-0.6-1.8c0,0-0.1-0.1-0.1-0.1c-0.2-0.2-0.5-0.3-0.9-0.2c-0.2,0-0.4,0.1-0.6,0.3c-1.2,0.7-2.2,1.6-3.1,2.6
	c-0.4,0.4-0.7,0.9-0.9,1.5c-0.4,0.7-0.7,1.5-0.9,2.3c-0.2,0.8-0.4,1.5-0.3,2.3c0,0.3,0.2,0.9,0.5,1c0.1,0,0.2,0,0.3,0
	c0.7-0.1,1.9-0.9,2.3-1.3l-0.1-0.1c-0.2,0.1-0.4,0.3-0.6,0.3c-0.1,0-0.1,0-0.2-0.1c-0.2-0.1-0.3-0.3-0.4-0.5
	c-0.4-0.7-0.4-1.5-0.3-2.3c0.1-0.6,0.2-1.2,0.5-1.8c0.1-0.3,0.3-0.6,0.5-0.9c0.2-0.3,0.4-0.6,0.7-0.9c0.3-0.3,0.6-0.6,1-0.4
	c0.2,0.1,0.3,0.2,0.4,0.4c0.1,0.2,0.2,0.5,0.2,0.8c0.1,0.5,0.1,1,0.1,1.5c0,1,0.1,1.9,0.1,2.8c0,0.4,0.1,0.9,0.2,1.3
	c0,0.1,0,0.1,0,0.2c0.1,0.4,0.4,0.6,0.7,0.5c0.1,0,0.2-0.1,0.3-0.1c0.4-0.2,0.8-0.5,1.2-0.9c0.1-0.1,0.3-0.3,0.4-0.5
	c0.2-0.3,0.4-0.6,0.6-0.8c0.3-0.6,0.7-1.1,1-1.7c0.2-0.4,0.4-0.8,0.6-1.3c0.1-0.1,0.1-0.3,0.2-0.5c0,0,0.1,0,0.1,0
	c-0.1,1.6-0.3,3.4-0.5,4.8l-0.3,0.1c-2.4,1.2-4.8,2.3-7,3.9l0.1,0.2c2.1-1.4,4.5-2.4,6.8-3.4l0.3-0.1c0,0.2,0,0.5-0.1,0.7
	c-0.2,1.4-0.4,2.8-1,4.2c-0.9,2.3-2.9,2.6-5,1.8c-0.9-0.3-1.6-0.9-1.9-1.6c0,0,0-0.1,0-0.1c-0.1-0.2-0.1-0.7,0-0.8l-0.1-0.1
	c-0.8,0.6-1.7,1.6-2.1,2.5c-0.1,0.1-0.1,0.2-0.2,0.4c-0.1,0.3-0.1,0.6,0.1,0.9c0.3,0.5,0.8,0.8,1.4,1c1.1,0.3,2.5,0.1,3.6-0.2
	c0.9-0.2,1.6-0.5,2.3-0.9c1-0.6,2.1-1.5,2.9-2.5c0.4-0.5,0.7-1,1-1.5c0.6-1.2,1.1-2.5,1.5-3.8c0.1-0.3,0.2-0.5,0.2-0.8
	c0.6-0.2,1.1-0.4,1.6-0.6c-0.4,2.4-0.5,4.9-1,6.4c0.6-0.3,1.2-0.8,1.8-1.1c0.1-0.1,0.2-0.1,0.2-0.2c0.1-0.1,0.2-0.1,0.2-0.2
	c0,0,0.1-0.1,0.1-0.2c0.2-0.3,0.4-0.7,0.5-1c0.1-0.4,0.2-0.8,0.3-1.1c0.2-0.9,0.4-2.2,0.5-3.5c0.6-0.2,1.1-0.3,1.5-0.4
	c-0.3,2.6,0,4.6,0.9,5.1c0.2,0.1,0.4,0.1,0.6-0.1c0.1-0.1,0.3-0.3,0.5-0.5c0.2-0.3,0.5-0.6,0.7-0.9c0.1-0.2,0.2-0.3,0.3-0.5
	c0.6-1,1.1-2,1.6-2.9c0,0.8,0.1,1.7,0.4,2.4c0.1,0.2,0.3,0.4,0.6,0.4c0.7,0,1.5-1.3,1.9-1.9c0.6-0.9,1.1-1.9,1.5-3.1
	c-0.1,1.1,0,2.1,0.4,2.8c0.1,0.3,0.3,0.6,0.7,0.6c0.5,0,1-0.6,1.3-1c1.3-1.5,1.9-3.2,2.7-4.9c0.1,1.9,0.5,3,1.2,3.4
	c0.2,0.1,0.5,0.2,0.7,0.3c0.5,0,1.3-0.5,1.8-1c0.3-0.3,0.6-0.6,0.9-0.9c1.8-1.8,2.8-4.2,3.9-6.4c-0.4,2.2-0.3,3.7,0.6,4.6
	c0.2,0.2,0.6,0.5,0.9,0.5c0.4,0,0.8-0.2,1.1-0.3c1.7-0.9,3-3.4,4.4-5.4l0.2-0.3l0.2-0.3c-0.1,0.4-0.1,0.8-0.2,1.2
	c-0.5,3-0.9,6.2-1.3,9.5l1.6-1c1.4-7.2,2.5-12.6,4.6-14.7c-0.5,2-1.4,5.6-0.1,6.8c0.2,0.2,0.5,0.4,0.8,0.3c0.2,0,0.5-0.2,0.8-0.4
	c0.7-0.7,1.5-2.3,2.2-3.9c0,0.1,0,0.3,0,0.4c0,0.2,0.1,0.4,0.1,0.5c0,0.1,0,0.3,0.1,0.4c0.1,0.4,0.3,0.8,0.6,1
	c0.2,0.2,0.4,0.2,0.8,0.2C92.4,108.7,93.8,105.9,95.2,103.5z M111,40.5L111,40.5l-1.7,2l0.8,0.6l3.6-4.3l-0.8-0.6l-1.5,1.7l-1.9-1.6
	l1.5-1.7l-0.8-0.6l-3.6,4.3l0.8,0.6l1.7-2L111,40.5z M105,35.6L105,35.6c0.5-1,0.6-2-0.3-2.5c-0.9-0.5-1.8,0.1-2.3,1
	c-0.5,1-0.7,2.2,0.2,2.7C103.5,37.3,104.4,36.5,105,35.6z M105.9,36.1L105.9,36.1c-0.9,1.5-2.3,2.2-3.7,1.4
	c-1.4-0.8-1.6-2.4-0.8-3.9c0.8-1.4,2.3-1.9,3.6-1.2C106.3,33.1,106.7,34.6,105.9,36.1z M97.3,27.2L97.3,27.2l-0.6-0.1
	c0,0.1,0,0.2,0,0.3c0,0.2,0.1,0.4,0.1,0.5c0.1,0.3,0.4,0.5,0.7,0.7c0.1,0.1,0.3,0.1,0.4,0.1c0.2,0,0.4,0,0.5-0.1
	c0.2-0.1,0.3-0.2,0.5-0.3c0.1-0.1,0.2-0.1,0.2-0.2l-0.5-0.3c-0.1,0.1-0.1,0.1-0.2,0.1C98.6,28,98.5,28,98.4,28c-0.2,0-0.3,0.1-0.5,0
	c-0.2-0.1-0.3-0.2-0.4-0.3C97.4,27.6,97.3,27.4,97.3,27.2z M98.2,30.7L98.2,30.7l-3.9,3l-0.9-0.3l2-5.3l0.9,0.4l-1.5,3.9l3.9-3
	l0.9,0.3l-2,5.3l-0.9-0.4L98.2,30.7z M88.2,30L88.2,30l1.6,0.4l-0.2-2.7L88.2,30z M89.8,31.1L89.8,31.1l-2-0.5l-0.6,1.1l-0.9-0.2
	l3.2-5l1,0.2l0.6,5.9l-1.1-0.3L89.8,31.1z M82.5,25.5L82.5,25.5c1.3,0.1,2.2,0.7,2.1,2c-0.1,1-0.7,1.9-1.9,1.8l-0.6,0l0.3-0.7l0.2,0
	c0.6,0,0.9-0.5,1-1.1c0.1-0.8-0.4-1.1-1.1-1.1l-0.5,0l-0.3,4.8l-1-0.1l0.4-5.6L82.5,25.5z M76.6,28L76.6,28c-0.1-1.1-0.6-2-1.7-1.9
	c-1.1,0.1-1.4,1-1.4,2.1c0.1,1.1,0.6,2.2,1.7,2.2C76.3,30.3,76.7,29.1,76.6,28z M77.6,28L77.6,28c0.1,1.8-0.7,3.1-2.4,3.2
	c-1.6,0.1-2.7-1.1-2.8-2.9c-0.1-1.6,0.9-2.9,2.4-3C76.4,25.2,77.5,26.3,77.6,28z M67.2,26.5L67.2,26.5c1.3-0.3,2.3,0,2.6,1.3
	c0.2,1-0.1,2-1.3,2.3l-0.6,0.1l0.1-0.8l0.2,0c0.6-0.1,0.7-0.7,0.6-1.3c-0.2-0.7-0.7-0.9-1.4-0.8l-0.5,0.1l1.1,4.7l-1,0.2l-1.3-5.5
	L67.2,26.5z M60.4,31.5L60.4,31.5l1,2.6l-0.9,0.4l-2-5.3l0.9-0.4l0.9,2.4l1.1-3.3l0.9-0.2l-1.1,3.1l3.1,2l-0.9,0.5L60.4,31.5z
	 M54.6,32.6L54.6,32.6l2,3.6l0.9-0.5l-2.7-4.9l-0.8,0.5l-0.2,4.9l-2-3.6l-0.9,0.5l2.7,4.9l0.8-0.5L54.6,32.6z M47.6,37.3l0.4,3
	l-0.3,0.2l-2.6-1l2.3,3l-0.7,0.5l-3.5-4.4l0.6-0.5l3.3,1.2L46.7,36l0.7-0.5l3.5,4.4l-0.8,0.6L47.6,37.3z M78.4,20.5
	c29.5,0,53.9,22.4,57.2,51l-14.4,5.5c-0.5-23.1-19.5-41.8-42.8-41.8c-23.6,0-42.8,19.2-42.8,42.8c0,10.6,3.9,20.4,10.4,27.9
	l-14.4,5.5c-6.7-9.4-10.7-21-10.7-33.4C20.9,46.4,46.7,20.5,78.4,20.5z"/>
</svg>
