<svg viewBox="0 0 14 14" fill="none" xmlns="http://www.w3.org/2000/svg"><path d="M9.33 1.917a1.322 1.322 0 000 2.643 1.323 1.323 0 000-2.643zm0 1.822a.502.502 0 11.002-1.003.502.502 0 01-.002 1.003z" fill="#fff"/><path d="M13.59 5.434h-1.547c.287-.795.432-1.532.432-2.196A3.147 3.147 0 009.33.096a3.147 3.147 0 00-3.144 3.142c0 .664.145 1.4.431 2.196H.41a.41.41 0 00-.41.41v7.65c0 .227.184.41.41.41h13.18a.41.41 0 00.41-.41v-7.65a.41.41 0 00-.41-.41zM9.33.916a2.326 2.326 0 012.325 2.322c0 .709-.2 1.531-.592 2.445-.535 1.245-1.306 2.361-1.733 2.934-.655-.878-1.3-1.927-1.733-2.934-.392-.914-.591-1.736-.591-2.445A2.326 2.326 0 019.33.916zM.82 6.255h3.042l2.139 3.786H.82V6.255zm0 6.829v-2.222h5.644l1.255 2.222H.82zm12.36 0H8.66l-3.857-6.83h2.15a16.255 16.255 0 002.017 3.24c.415.514.8-.098.742-.027a16.265 16.265 0 001.995-3.211h1.473v6.829z" fill="#fff"/></svg>